<?xml version="1.0" encoding="UTF-8"?>
<!DOCTYPE svg PUBLIC "-//W3C//DTD SVG 1.1//EN" "http://www.w3.org/Graphics/SVG/1.1/DTD/svg11.dtd">
<!-- Creator: CorelDRAW X7 -->
<svg xmlns="http://www.w3.org/2000/svg" xml:space="preserve" width="1920px" height="1920px" version="1.1" style="shape-rendering:geometricPrecision; text-rendering:geometricPrecision; image-rendering:optimizeQuality; fill-rule:evenodd; clip-rule:evenodd"
viewBox="0 0 192000 192000"
 xmlns:xlink="http://www.w3.org/1999/xlink">
 <defs>
  <style type="text/css">
   <![CDATA[
    .fil0 {fill:none}
    .fil2 {fill:white}
    .fil1 {fill:#1EAC7D;fill-rule:nonzero}
    .fil4 {fill:#9CDBC6;fill-rule:nonzero}
    .fil3 {fill:#FFCC00;fill-rule:nonzero}
   ]]>
  </style>
 </defs>
 <g id="Layer_x0020_1">
  <metadata id="CorelCorpID_0Corel-Layer"/>
  <g id="_1658993452192">
   <rect class="fil0" width="192000" height="192000"/>
   <g>
    <circle class="fil0" cx="96000" cy="96000" r="6060"/>
    <g>
     <circle class="fil1" transform="matrix(-1.38902 1.38902 -1.38902 -1.38902 96000 96000)" r="35942"/>
     <g>
      <g>
       <path class="fil2" d="M132004 136375c-751,450 -1540,809 -2349,1078 -1022,339 -2071,532 -3111,575 -550,23 -1105,4 -1661,-58 -418,-46 -829,-116 -1232,-209 -46,62 -93,125 -142,186 -132,168 -272,326 -421,475 -516,516 -1114,907 -1754,1172 -667,276 -1373,414 -2076,414 -703,0 -1410,-138 -2076,-414 -640,-265 -1238,-656 -1754,-1172 -516,-516 -907,-1114 -1172,-1754 -276,-666 -414,-1373 -414,-2076 0,-497 69,-997 209,-1487 88,-309 203,-611 346,-902 -99,-69 -198,-142 -296,-218l-13 -11c-238,-185 -457,-378 -657,-577 -944,-944 -1578,-2097 -1918,-3377 -348,-1308 -384,-2748 -124,-4227 242,-1376 744,-2789 1491,-4156 718,-1313 1661,-2585 2815,-3739 1154,-1153 2425,-2096 3739,-2814 1366,-747 2780,-1249 4155,-1491 1479,-260 2919,-224 4228,123 1279,340 2432,975 3376,1919 202,202 392,417 569,643 64,82 127,166 188,251 323,-181 660,-326 1006,-435 532,-168 1084,-252 1636,-252 703,0 1409,138 2076,414 640,265 1238,656 1754,1172 516,516 907,1114 1172,1754 276,666 414,1373 414,2076 0,703 -138,1409 -414,2076 -265,640 -656,1238 -1172,1754 -183,183 -381,353 -590,510 -94,70 -189,137 -287,200 98,410 171,827 219,1248 64,562 85,1131 61,1701 -36,844 -148,1623 -346,2384 -196,752 -476,1480 -846,2229l1 0c-349,762 -512,1537 -492,2258 20,704 213,1357 578,1892 169,247 106,584 -142,754 -87,59 -185,90 -283,94 -719,30 -1309,-55 -1789,-233 -171,-64 -328,-139 -471,-224 -8,52 -15,104 -22,157 -49,365 -71,750 -71,1168 1,300 -241,543 -541,544 -157,0 -299,-66 -398,-173 -325,-321 -587,-621 -793,-909 -76,-105 -144,-210 -206,-313zm-2692 51c901,-299 1780,-727 2608,-1284l0 1c35,-23 73,-43 114,-58 280,-104 592,38 696,318 53,141 124,286 217,438 56,-391 137,-763 247,-1130l1 1c35,-117 109,-222 218,-295 249,-166 585,-99 751,150 154,232 389,420 721,543 141,52 300,93 477,122 -187,-494 -288,-1027 -304,-1581 -25,-890 170,-1832 588,-2744l2 1 7 -16c342,-689 598,-1353 775,-2035 177,-678 278,-1383 310,-2155 22,-514 4,-1027 -54,-1533 -58,-500 -155,-995 -291,-1481 -67,-238 36,-499 263,-623 179,-97 354,-209 523,-335 161,-121 319,-258 472,-411 417,-417 731,-895 941,-1403 218,-526 327,-1091 327,-1658 0,-568 -109,-1132 -327,-1658 -210,-508 -524,-986 -941,-1403 -417,-417 -895,-731 -1403,-941 -526,-218 -1090,-327 -1658,-327 -442,0 -884,67 -1309,201 -415,132 -814,326 -1180,584l0 0 -33 21c-256,155 -590,73 -745,-183 -124,-205 -263,-406 -416,-602 -148,-188 -310,-371 -485,-546 -806,-806 -1792,-1348 -2887,-1639 -1157,-308 -2437,-338 -3759,-106 -1258,222 -2559,685 -3824,1377 -1220,667 -2407,1548 -3490,2631 -1084,1084 -1965,2270 -2632,3490 -692,1266 -1155,2567 -1376,3825 -233,1321 -202,2602 105,3759 291,1095 833,2081 1639,2887 184,184 369,348 553,491l12 10c192,149 403,291 630,426l9 6c254,159 332,493 174,748 -216,347 -377,715 -485,1093 -109,384 -164,785 -164,1190 0,568 109,1132 327,1658 210,508 524,986 941,1403 417,417 895,731 1403,941 526,218 1090,327 1658,327 567,0 1132,-109 1658,-327 508,-210 986,-524 1403,-941 125,-125 238,-252 340,-381 104,-131 200,-270 290,-416l1 1c123,-200 368,-304 606,-238 477,130 961,222 1447,276 486,54 987,70 1496,49 946,-40 1894,-213 2813,-518z"/>
       <path class="fil2" d="M127388 132996c-1735,1735 -4549,1735 -6285,0 -726,-726 -1148,-1640 -1266,-2586 -1654,155 -3145,-246 -4159,-1260 -1144,-1144 -1509,-2897 -1173,-4805 364,-2072 1539,-4302 3436,-6200 1898,-1898 4129,-3072 6201,-3436 1908,-336 3660,28 4804,1173 1012,1011 1414,2499 1262,4149 948,117 1865,540 2592,1267 1736,1736 1736,4550 0,6285 -1152,1152 -2779,1539 -4250,1162 377,1472 -10,3099 -1162,4251zm-7993 -10743c-277,415 -839,527 -1255,250 -416,-278 -528,-840 -250,-1255 190,-285 409,-578 654,-877 243,-296 488,-568 732,-812 245,-244 516,-489 812,-732 299,-246 592,-464 877,-654 416,-278 978,-166 1255,250 278,415 166,977 -250,1255 -267,179 -512,359 -731,539 -222,182 -450,390 -682,622 -233,233 -441,461 -623,682 -180,220 -360,464 -539,732zm4188 2912c-121,120 -279,180 -437,180 -158,0 -316,-60 -436,-180 -120,-121 -181,-278 -181,-436l0 -1c0,-158 61,-316 181,-436 120,-121 278,-181 436,-181 158,0 316,60 437,181 120,120 180,278 180,436l0 1c0,158 -60,316 -180,436zm1425 -1426c-120,121 -278,181 -436,181l-1 0c-158,0 -316,-60 -436,-181 -120,-120 -180,-278 -180,-436l0 0c0,-158 60,-316 180,-436 120,-121 278,-181 436,-181l1 0c158,0 316,60 436,181 120,120 180,278 180,436l0 0c0,158 -60,316 -180,436zm582 7459c-289,289 -701,400 -1134,346 -433,-53 -886,-272 -1258,-643 -371,-372 -590,-825 -644,-1258 -53,-433 58,-845 347,-1134 289,-290 702,-401 1135,-347 433,53 886,272 1257,644 371,371 590,824 644,1257 54,433 -58,845 -347,1135zm5412 -5413c-289,290 -701,401 -1134,347 -433,-54 -886,-272 -1258,-644 -371,-371 -590,-824 -643,-1257 -54,-433 57,-845 346,-1135 290,-289 702,-400 1135,-347 433,54 886,273 1257,644 372,372 591,825 644,1258 54,433 -57,845 -347,1134zm-11744 11046c573,0 1146,-218 1583,-656 33,-33 65,-66 95,-101 -620,-380 -1204,-837 -1738,-1371 -335,-335 -651,-708 -947,-1115 -147,-201 -284,-406 -412,-614 -37,-5 -74,-11 -111,-17 -18,17 -36,34 -53,52 -438,437 -656,1010 -656,1583 0,573 218,1146 656,1583 437,438 1010,656 1583,656zm16594 -15722c-377,-609 -827,-1182 -1353,-1708 -335,-335 -708,-651 -1114,-947 -202,-146 -407,-284 -614,-412 -4,-24 -8,-48 -11,-71 73,-104 156,-203 249,-296 437,-438 1010,-656 1583,-656 573,0 1146,218 1583,656 438,437 656,1010 656,1583 0,573 -218,1146 -656,1583 -101,101 -209,191 -323,268z"/>
      </g>
      <g>
       <path class="fil2" d="M150008 99091c-213,849 -516,1661 -899,2423 -482,963 -1088,1840 -1793,2607 -373,405 -775,781 -1202,1124 -320,258 -657,497 -1008,716 14,80 25,160 35,239 25,213 38,428 38,643 0,730 -147,1429 -412,2069 -276,666 -678,1264 -1175,1761 -980,980 -2334,1586 -3830,1586 -730,0 -1429,-146 -2069,-411 -666,-276 -1263,-678 -1760,-1175 -352,-352 -658,-757 -906,-1203 -156,-281 -288,-576 -393,-884 -124,22 -250,42 -376,58 -309,39 -610,59 -903,59 -1335,0 -2599,-366 -3744,-1030 -1171,-680 -2215,-1673 -3077,-2903 -801,-1143 -1446,-2498 -1884,-3992 -421,-1437 -653,-3002 -653,-4634 0,-1632 232,-3197 653,-4634 438,-1494 1083,-2849 1884,-3992 862,-1230 1906,-2223 3077,-2903 1145,-664 2409,-1030 3744,-1030 293,0 584,18 873,53 107,14 214,30 322,48 100,-355 235,-696 402,-1018 260,-499 591,-951 981,-1341 497,-497 1094,-899 1760,-1175 640,-265 1339,-411 2069,-411 731,0 1430,146 2070,411 666,276 1263,678 1760,1175 497,497 899,1095 1175,1761 265,640 412,1339 412,2069 0,262 -20,524 -58,785 -17,120 -38,238 -63,355 358,221 699,461 1023,719 439,350 852,735 1235,1151 573,623 1044,1253 1441,1931 397,675 715,1392 984,2191 291,776 722,1433 1244,1926 512,484 1110,809 1746,929 294,56 488,339 433,633 -19,104 -67,195 -134,268 -487,529 -965,886 -1429,1099 -166,77 -330,134 -492,175 31,42 63,85 95,127 224,292 480,581 776,876 213,211 214,555 3,767 -111,111 -259,165 -404,159 -457,4 -855,-24 -1204,-81 -128,-21 -250,-47 -367,-76zm-1867 1939c425,-848 744,-1773 936,-2751l1 0c8,-41 21,-82 39,-121 124,-272 446,-392 718,-268 136,63 289,115 462,156 -237,-316 -443,-637 -625,-973l1 -1c-57,-107 -79,-234 -54,-362 59,-294 344,-484 637,-425 274,55 572,22 894,-126 137,-63 278,-146 424,-251 -481,-217 -929,-522 -1332,-902 -640,-605 -1165,-1402 -1515,-2336l-14 -37c-246,-730 -534,-1380 -890,-1987 -355,-605 -782,-1174 -1306,-1744 -345,-375 -716,-722 -1111,-1036 -385,-307 -787,-581 -1202,-818 -242,-111 -371,-386 -293,-648 60,-200 106,-404 136,-611 29,-202 44,-413 44,-632 0,-590 -116,-1149 -326,-1657 -218,-526 -540,-1002 -941,-1404 -402,-401 -878,-723 -1404,-941 -508,-211 -1068,-327 -1658,-327 -589,0 -1149,116 -1657,327 -526,218 -1002,540 -1403,941 -316,315 -581,676 -785,1069 -201,387 -345,808 -421,1253l-1 0 -8 38c-71,291 -365,469 -656,397 -237,-59 -483,-104 -735,-136 -243,-30 -490,-45 -741,-45 -1140,0 -2220,314 -3200,882 -1036,601 -1963,1485 -2733,2584 -733,1046 -1325,2294 -1731,3678 -391,1334 -607,2796 -607,4328 0,1532 216,2994 607,4328 406,1384 998,2632 1731,3678 770,1099 1697,1983 2733,2584 980,568 2060,882 3200,882 269,0 525,-16 767,-47 245,-31 490,-78 733,-140l40 -10c292,-67 583,115 649,407 92,397 239,772 430,1118 195,350 440,673 728,960 401,401 877,723 1403,941 508,211 1068,327 1657,327 1196,0 2278,-485 3062,-1268 401,-401 723,-878 941,-1404 210,-508 326,-1067 326,-1657 0,-178 -10,-350 -29,-516 -22,-179 -52,-347 -90,-505 -54,-228 44,-474 257,-597 418,-240 821,-516 1205,-825 384,-308 746,-647 1083,-1014 641,-697 1190,-1490 1624,-2356z"/>
       <path class="fil2" d="M144355 99965c0,2454 -1990,4444 -4445,4444 -1026,0 -1971,-348 -2723,-932 -1060,1279 -2398,2049 -3832,2049 -1618,0 -3115,-981 -4227,-2568 -1207,-1723 -1954,-4130 -1954,-6814 0,-2684 747,-5091 1954,-6814 1112,-1587 2609,-2568 4227,-2568 1431,0 2767,767 3826,2042 753,-587 1700,-937 2729,-937 2455,0 4445,1989 4445,4444 0,1629 -877,3053 -2184,3827 1307,774 2184,2198 2184,3827zm-9146 -4862c0,170 -70,324 -181,436l-1 0c-112,112 -266,181 -436,181 -170,0 -324,-69 -436,-181l0 0c-112,-112 -181,-266 -181,-436 0,-170 69,-324 181,-436l0 0c112,-112 266,-181 436,-181 170,0 324,69 436,181l1 0c111,112 181,266 181,436zm6603 -2792c0,409 -213,779 -557,1047 -344,269 -819,434 -1345,434 -525,0 -1000,-165 -1344,-434 -344,-268 -557,-638 -557,-1047 0,-409 213,-779 557,-1047 344,-269 819,-434 1344,-434 526,0 1001,165 1345,434 344,268 557,638 557,1047zm0 7654c0,409 -213,779 -557,1048 -344,268 -819,433 -1345,433 -525,0 -1000,-165 -1344,-433 -344,-269 -557,-639 -557,-1048 0,-409 213,-779 557,-1047 344,-269 819,-434 1344,-434 526,0 1001,165 1345,434 344,268 557,638 557,1047zm-11032 -3335c217,450 29,990 -421,1206 -449,217 -989,29 -1205,-420 -96,-198 -168,-396 -214,-592 -50,-207 -74,-415 -74,-624 0,-209 24,-417 74,-624 46,-196 118,-394 214,-592 216,-449 756,-637 1205,-420 450,216 638,756 421,1206 -34,70 -61,145 -79,224 -17,68 -25,137 -25,206 0,69 8,138 25,206 18,79 45,154 79,224zm4429 489c0,170 -70,324 -181,436 -112,112 -266,181 -437,181 -170,0 -324,-69 -436,-181l0 0c-112,-112 -181,-266 -181,-436 0,-171 69,-325 181,-437 112,-111 266,-181 436,-181 170,0 324,70 436,181l1 1c111,112 181,266 181,436zm6137 11307c405,-405 656,-965 656,-1583 0,-49 -2,-97 -5,-145 -716,174 -1461,266 -2227,266 -473,0 -961,-41 -1458,-119 -246,-38 -488,-86 -725,-142 -20,15 -41,30 -62,45 -1,31 -2,63 -2,95 0,618 251,1178 656,1583 405,405 965,656 1583,656 619,0 1179,-251 1584,-656zm615 -22844c27,-138 41,-280 41,-425 0,-618 -251,-1178 -656,-1583 -405,-405 -965,-656 -1584,-656 -618,0 -1178,251 -1583,656 -405,405 -656,965 -656,1583 0,140 13,276 38,409l26 19c237,-56 479,-104 725,-142 497,-78 985,-119 1458,-119 753,0 1486,89 2191,258z"/>
      </g>
      <g>
       <path class="fil2" d="M41992 92909c213,-849 516,-1661 899,-2423 482,-963 1088,-1840 1793,-2607 555,-604 1174,-1142 1844,-1602 548,-376 1134,-700 1752,-966 -2,-58 -3,-109 -3,-154 0,-730 146,-1429 411,-2069 276,-666 678,-1264 1175,-1761 498,-497 1095,-899 1761,-1175 640,-265 1339,-411 2069,-411 730,0 1430,146 2070,411 666,276 1263,678 1760,1175 324,324 608,693 846,1099 162,276 300,568 411,872 1285,24 2503,388 3609,1029 1171,680 2215,1673 3077,2903 801,1143 1446,2498 1884,3992 421,1437 654,3002 654,4634 0,1632 -233,3197 -654,4634 -438,1494 -1083,2849 -1884,3992 -862,1230 -1906,2223 -3077,2903 -1078,625 -2262,987 -3512,1027 -107,356 -251,697 -427,1019 -252,461 -565,880 -927,1242 -497,497 -1094,899 -1760,1175 -640,265 -1340,411 -2070,411 -730,0 -1429,-146 -2069,-411 -666,-276 -1263,-678 -1761,-1175 -497,-497 -899,-1094 -1175,-1761 -265,-640 -411,-1339 -411,-2069 0,-142 6,-287 18,-434 -615,-264 -1200,-587 -1751,-963 -676,-462 -1300,-1004 -1860,-1613 -572,-622 -1043,-1252 -1441,-1930 -393,-671 -710,-1383 -978,-2174l-1 0c-292,-785 -724,-1448 -1249,-1944 -512,-484 -1110,-809 -1746,-929 -294,-56 -488,-339 -433,-633 19,-104 67,-195 134,-268 487,-529 965,-886 1429,-1099 166,-77 330,-135 492,-175 -31,-43 -63,-85 -95,-127 -224,-292 -480,-581 -776,-876 -213,-211 -214,-555 -2,-767 110,-111 258,-164 403,-159 457,-4 855,24 1204,81 128,21 250,47 367,76zm1867 -1939c-425,848 -744,1773 -936,2751l-1 0c-8,41 -21,82 -39,121 -124,272 -446,392 -718,268 -136,-63 -289,-115 -462,-156 237,315 443,636 624,973l-1 0c58,107 80,234 54,363 -58,293 -344,483 -637,425 -273,-56 -571,-22 -893,126 -137,63 -278,146 -424,251 481,217 930,522 1333,903 646,611 1175,1416 1524,2356l-1 1 5 16c246,729 535,1380 891,1987 355,605 781,1174 1305,1743 505,549 1066,1037 1673,1452 598,409 1241,747 1918,1004 236,89 385,334 344,593 -16,104 -30,219 -40,346 -9,112 -14,228 -14,350 0,590 117,1149 327,1657 218,526 540,1002 941,1404 402,401 878,723 1404,941 508,211 1068,327 1657,327 590,0 1150,-116 1658,-327 526,-218 1002,-540 1403,-941 296,-296 547,-629 745,-991 194,-356 340,-745 428,-1157l1 1c53,-251 279,-437 545,-430l85 3c69,0 -59,-2 87,-2 1140,0 2221,-314 3200,-882 1036,-601 1963,-1485 2733,-2584 733,-1046 1325,-2294 1731,-3678 391,-1334 607,-2796 607,-4328 0,-1532 -216,-2994 -607,-4328 -406,-1384 -998,-2632 -1731,-3678 -770,-1099 -1697,-1983 -2733,-2584 -979,-568 -2060,-882 -3200,-882 -106,0 -89,-1 -118,-1l-106 3c-251,16 -487,-145 -556,-396 -101,-361 -246,-702 -431,-1016 -185,-317 -414,-612 -680,-878 -401,-401 -877,-723 -1403,-941 -508,-211 -1068,-327 -1658,-327 -589,0 -1149,116 -1657,327 -526,218 -1002,540 -1404,941 -401,401 -723,878 -941,1404 -210,508 -327,1067 -327,1657 0,95 2,170 5,227 4,75 9,150 17,225l-1 0c25,237 -111,471 -345,560 -667,257 -1304,595 -1901,1005 -600,412 -1156,895 -1656,1440 -641,697 -1190,1490 -1624,2356z"/>
       <path class="fil2" d="M47645 92035c0,-2454 1990,-4444 4445,-4444 1026,0 1971,348 2723,932 1060,-1279 2398,-2049 3832,-2049 1618,0 3115,981 4227,2568 1207,1723 1954,4130 1954,6814 0,2684 -747,5091 -1954,6814 -1112,1587 -2609,2568 -4227,2568 -1431,0 -2767,-767 -3826,-2042 -753,587 -1700,937 -2729,937 -2455,0 -4445,-1989 -4445,-4444 0,-1629 877,-3053 2185,-3827 -1308,-774 -2185,-2198 -2185,-3827zm3154 0c0,-525 138,-1000 362,-1344 223,-345 532,-557 873,-557 340,0 649,212 873,557 223,344 361,819 361,1344 0,525 -138,1000 -361,1344 -224,345 -533,557 -873,557 -341,0 -650,-212 -873,-557 -224,-344 -362,-819 -362,-1344zm8174 -205c141,-478 643,-752 1121,-611 479,140 752,642 612,1121 -157,533 -276,1090 -356,1661 -79,564 -120,1152 -120,1753 0,665 49,1310 143,1921 96,617 240,1223 431,1806 154,475 -106,985 -580,1139 -475,154 -985,-106 -1139,-580 -216,-659 -382,-1361 -494,-2089 -113,-733 -171,-1470 -171,-2197 0,-665 47,-1336 140,-2001 93,-659 231,-1303 413,-1923zm-4807 3051c0,-170 69,-324 181,-436 111,-112 266,-181 436,-181 170,0 324,69 436,181l1 0c111,112 180,266 180,436 0,171 -69,325 -180,437 -112,112 -266,181 -437,181 -170,0 -324,-69 -436,-181l0 -1c-112,-112 -181,-266 -181,-436zm0 2016c0,-170 69,-324 181,-436l0 0c112,-112 266,-181 436,-181 170,0 324,69 436,181l1 0c111,112 180,266 180,436 0,170 -69,324 -180,436l-1 0c-112,112 -266,181 -436,181 -170,0 -324,-69 -436,-181l0 0c-112,-112 -181,-266 -181,-436zm-3367 2792c0,-525 138,-1000 362,-1344 223,-345 532,-557 873,-557 340,0 649,212 873,557 223,344 361,819 361,1344 0,525 -138,1000 -361,1345 -224,344 -533,556 -873,556 -341,0 -650,-212 -873,-556 -224,-345 -362,-820 -362,-1345zm1311 -16115c-386,385 -631,911 -654,1494 255,-21 513,-32 774,-32 474,0 961,41 1458,119 246,38 488,86 725,143 446,-330 917,-609 1410,-833 -110,-340 -300,-644 -546,-891 -405,-405 -965,-656 -1584,-656 -618,0 -1178,251 -1583,656zm-647 23071c-6,65 -9,131 -9,198 0,618 251,1178 656,1583 405,405 965,656 1583,656 619,0 1179,-251 1584,-656 307,-307 526,-704 613,-1149 -518,-229 -1011,-518 -1477,-862 -237,56 -479,104 -725,142 -497,78 -984,119 -1458,119 -258,0 -514,-11 -767,-31z"/>
      </g>
      <g>
       <path class="fil2" d="M99091 41992c849,213 1661,516 2423,899 963,482 1840,1088 2607,1793 405,373 781,775 1124,1202 258,320 497,657 716,1008 80,-14 160,-25 239,-34 213,-26 428,-39 643,-39 730,0 1429,147 2069,412 666,276 1264,678 1761,1175 497,497 899,1094 1175,1760 265,640 411,1339 411,2070 0,730 -146,1429 -411,2069 -276,666 -678,1263 -1175,1760 -352,352 -757,658 -1203,906 -281,156 -576,288 -884,393 22,124 42,250 58,376 39,309 59,610 59,903 0,1335 -366,2599 -1030,3744 -680,1171 -1673,2215 -2903,3077 -1143,801 -2498,1446 -3992,1884 -1437,421 -3002,654 -4634,654 -1632,0 -3197,-233 -4634,-654 -1494,-438 -2849,-1083 -3992,-1884 -1230,-862 -2223,-1906 -2903,-3077 -664,-1145 -1030,-2409 -1030,-3744 0,-293 18,-584 54,-873 13,-107 29,-214 47,-321 -355,-101 -696,-236 -1018,-403 -499,-259 -951,-591 -1341,-981 -497,-497 -899,-1094 -1175,-1760 -265,-640 -411,-1339 -411,-2069 0,-731 146,-1430 411,-2070 276,-666 678,-1263 1175,-1760 497,-497 1094,-899 1761,-1175 640,-265 1339,-412 2069,-412 262,0 524,20 785,58 120,17 238,38 355,63 221,-358 461,-699 719,-1023 350,-439 735,-852 1151,-1235 623,-573 1253,-1044 1931,-1441 675,-396 1392,-715 2191,-984 776,-291 1433,-722 1927,-1244 483,-512 808,-1110 929,-1746 55,-294 338,-488 632,-433 104,19 196,67 268,134 530,487 886,965 1099,1429 77,167 134,331 175,492 43,-31 85,-62 127,-95 292,-224 581,-480 876,-776 211,-213 555,-214 767,-2 111,110 165,258 159,403 4,457 -24,855 -81,1204 -21,128 -47,250 -76,367zm1939 1867c-848,-425 -1773,-744 -2751,-936l0 -1c-41,-8 -82,-21 -121,-39 -272,-124 -392,-446 -268,-718 63,-136 115,-289 156,-462 -316,237 -637,443 -973,625l-1 -1c-107,57 -234,79 -363,54 -293,-59 -483,-344 -424,-637 55,-274 22,-572 -126,-894 -63,-137 -146,-278 -251,-424 -217,481 -522,929 -902,1332 -605,640 -1402,1165 -2336,1515l-37 14c-730,246 -1380,534 -1987,890 -605,355 -1174,782 -1744,1306 -375,345 -722,716 -1036,1111 -307,385 -581,787 -818,1202 -111,242 -386,371 -648,293 -200,-60 -404,-106 -611,-136 -202,-29 -413,-44 -632,-44 -590,0 -1149,116 -1657,326 -526,218 -1002,540 -1404,942 -401,401 -723,877 -941,1403 -211,508 -327,1068 -327,1658 0,589 116,1149 327,1657 218,526 540,1002 941,1404 315,315 676,580 1069,784 387,201 808,345 1253,421l0 1 38 8c291,71 469,365 397,656 -59,237 -104,483 -136,735 -30,243 -45,490 -45,741 0,1140 314,2220 882,3200 601,1036 1485,1963 2584,2733 1046,733 2294,1325 3678,1731 1334,391 2796,607 4328,607 1532,0 2994,-216 4328,-607 1384,-406 2632,-998 3678,-1731 1099,-770 1983,-1697 2584,-2733 568,-980 882,-2060 882,-3200 0,-269 -16,-525 -47,-767 -31,-245 -78,-490 -140,-733l-11 -39c-66,-293 116,-584 408,-650 397,-92 772,-239 1118,-430 350,-195 673,-440 960,-727 401,-402 723,-878 941,-1404 211,-508 327,-1068 327,-1657 0,-590 -116,-1150 -327,-1658 -218,-526 -540,-1002 -941,-1403 -401,-402 -878,-724 -1404,-942 -508,-210 -1067,-326 -1657,-326 -178,0 -350,10 -516,29 -179,22 -347,52 -505,90 -228,55 -474,-44 -597,-257 -240,-418 -516,-821 -825,-1205 -308,-384 -647,-746 -1014,-1083 -697,-641 -1490,-1190 -2356,-1624z"/>
       <path class="fil2" d="M99965 50188c525,0 1000,213 1344,557 345,344 557,820 557,1345 0,525 -212,1000 -557,1344 -344,344 -819,557 -1344,557 -525,0 -1000,-213 -1344,-557 -345,-344 -557,-819 -557,-1344 0,-525 212,-1001 557,-1345 344,-344 819,-557 1344,-557zm0 -2543c2455,0 4444,1990 4444,4445 0,1026 -348,1971 -932,2723 871,722 1506,1573 1822,2495 -1117,689 -2354,1245 -3669,1655 -1726,538 -3585,821 -5486,821 -1750,0 -3468,-241 -5082,-701 -1468,-419 -2844,-1016 -4074,-1774 316,-920 948,-1769 1816,-2490 -587,-753 -937,-1700 -937,-2729 0,-2455 1989,-4445 4444,-4445 1629,0 3053,877 3827,2184 774,-1307 2198,-2184 3827,-2184zm5508 11649c-223,1367 -1143,2616 -2515,3578 -1723,1207 -4130,1954 -6814,1954 -2684,0 -5091,-747 -6814,-1954 -1373,-962 -2292,-2212 -2515,-3579 1170,639 2432,1153 3752,1529 1776,507 3663,773 5577,773 2077,0 4120,-313 6023,-907 1161,-361 2271,-829 3306,-1394zm-8354 -5044c170,0 324,69 436,181 112,111 181,266 181,436 0,170 -69,324 -181,436l0 1c-112,111 -266,180 -436,180 -171,0 -325,-69 -437,-180 -111,-112 -181,-266 -181,-437 0,-170 70,-324 181,-436l1 0c112,-112 266,-181 436,-181zm-2016 0c170,0 324,69 436,181l0 0c112,112 181,266 181,436 0,170 -69,324 -181,436l0 1c-112,111 -266,180 -436,180 -170,0 -324,-69 -436,-180l0 -1c-112,-112 -181,-266 -181,-436 0,-170 69,-324 181,-436l0 0c112,-112 266,-181 436,-181zm-2792 -4062c525,0 1000,213 1344,557 345,344 557,820 557,1345 0,525 -212,1000 -557,1344 -344,344 -819,557 -1344,557 -525,0 -1000,-213 -1345,-557 -344,-344 -556,-819 -556,-1344 0,-525 212,-1001 556,-1345 345,-344 820,-557 1345,-557zm-6729 -149c-138,-27 -280,-41 -425,-41 -618,0 -1178,251 -1583,656 -405,405 -656,965 -656,1584 0,618 251,1178 656,1583 405,405 965,656 1583,656 140,0 276,-13 409,-38l19 -26c-56,-237 -104,-479 -142,-725 -78,-497 -119,-985 -119,-1458 0,-753 89,-1486 258,-2191zm22844 615c-405,-405 -965,-656 -1583,-656 -49,0 -97,2 -145,5 174,716 266,1461 266,2227 0,473 -41,961 -119,1458 -38,246 -86,488 -142,725 15,21 30,41 45,62 31,1 63,2 95,2 618,0 1178,-251 1583,-656 405,-405 656,-965 656,-1583 0,-619 -251,-1179 -656,-1584z"/>
      </g>
      <g>
       <path class="fil2" d="M136084 59673c456,747 822,1532 1097,2340 347,1019 548,2066 600,3106 27,545 14,1090 -40,1631 -40,406 -104,809 -191,1206 69,48 136,97 201,148 172,132 336,275 491,428 520,512 916,1107 1186,1745 282,664 425,1369 431,2072 6,703 -127,1410 -397,2079 -260,642 -646,1243 -1158,1764 -512,520 -1107,916 -1745,1186 -664,281 -1370,425 -2072,431 -500,4 -1003,-63 -1496,-199 -310,-86 -614,-200 -907,-342 -73,108 -149,214 -228,319l-11 14c-187,246 -384,474 -590,683 -936,952 -2084,1596 -3361,1946 -1305,358 -2745,406 -4226,157 -1378,-230 -2795,-721 -4167,-1457 -1320,-707 -2599,-1640 -3762,-2784 -1163,-1144 -2116,-2408 -2844,-3716 -758,-1361 -1271,-2770 -1524,-4144 -273,-1477 -248,-2917 89,-4228 330,-1282 955,-2440 1891,-3392 201,-204 422,-401 663,-591l-2 -1c89,-70 179,-138 272,-204 -184,-321 -332,-657 -445,-1002 -175,-536 -265,-1090 -269,-1642 -6,-703 127,-1411 397,-2079 260,-642 646,-1243 1158,-1764 512,-520 1107,-916 1745,-1186 664,-281 1369,-425 2072,-431 703,-5 1411,127 2079,397 643,260 1244,646 1764,1159 190,186 365,387 524,598 75,98 145,198 212,299 401,-97 808,-170 1216,-219 553,-66 1112,-90 1673,-71 864,30 1656,142 2419,336 752,192 1473,465 2203,819l0 -1c765,343 1541,500 2262,473 704,-25 1355,-224 1887,-592 246,-171 584,-111 755,135 60,87 92,185 96,283 37,718 -44,1309 -218,1790 -62,172 -136,329 -220,473 52,8 104,15 157,21 365,46 750,65 1169,61 299,-3 544,237 548,537 1,157 -64,299 -170,399 -318,328 -616,593 -903,801 -104,77 -208,146 -311,209zm73 2690c-307,-898 -742,-1773 -1305,-2596l1 -1c-23,-34 -43,-72 -59,-113 -107,-279 33,-592 313,-699 140,-54 284,-126 435,-221 -391,-52 -764,-130 -1131,-237l0 -1c-117,-34 -223,-107 -296,-216 -168,-247 -104,-584 144,-752 231,-156 416,-392 537,-725 51,-142 91,-301 118,-479 -492,191 -1025,297 -1579,317 -889,33 -1833,-155 -2748,-566l0 -1 -15 -8c-667,-324 -1326,-574 -2014,-749 -684,-175 -1400,-276 -2185,-302 -505,-17 -1008,4 -1504,64 -483,58 -957,151 -1419,280 -248,91 -532,-11 -663,-250 -102,-186 -216,-364 -343,-532 -125,-165 -266,-326 -422,-479 -420,-414 -900,-724 -1410,-930 -528,-214 -1093,-318 -1661,-314 -567,5 -1131,119 -1655,341 -507,214 -982,532 -1396,952 -413,420 -723,901 -929,1410 -214,528 -318,1093 -314,1661 4,447 75,890 213,1312 134,411 330,804 589,1166 12,16 24,33 34,50 156,256 76,590 -180,746 -215,131 -424,275 -624,433l-1 -1c-188,148 -375,316 -562,506 -799,812 -1333,1803 -1616,2900 -298,1159 -318,2440 -75,3760 232,1256 706,2553 1408,3813 676,1215 1567,2394 2659,3469 1092,1074 2286,1946 3511,2603 1271,682 2576,1135 3835,1346 1324,222 2604,181 3759,-136 1092,-300 2074,-850 2873,-1662 187,-190 355,-383 502,-577l9 -12c156,-205 299,-423 430,-651l12 -20c157,-255 491,-334 746,-177 349,214 720,374 1101,480 387,108 791,160 1198,156 567,-4 1131,-118 1655,-340 507,-214 982,-532 1396,-952 413,-421 723,-901 929,-1410 214,-528 318,-1094 314,-1661 -5,-568 -118,-1132 -340,-1656 -215,-506 -532,-981 -953,-1395 -128,-126 -260,-241 -394,-345 -136,-105 -273,-199 -408,-281 -215,-115 -332,-366 -268,-613 120,-467 205,-944 253,-1426 48,-484 60,-975 35,-1469 -47,-946 -228,-1893 -540,-2810z"/>
       <path class="fil2" d="M132742 64315c1749,1722 1772,4536 50,6285 -719,732 -1630,1161 -2574,1287 168,1653 -222,3147 -1227,4169 -1135,1153 -2885,1532 -4795,1212 -2075,-348 -4315,-1505 -6228,-3387 -1913,-1882 -3105,-4103 -3486,-6172 -351,-1906 -1,-3661 1134,-4814 1004,-1020 2488,-1434 4139,-1295 110,-949 525,-1869 1246,-2603 1722,-1749 4536,-1772 6285,-50 1161,1142 1562,2766 1196,4241 1469,-389 3099,-15 4260,1127zm-1784 1813c375,368 564,853 568,1340 4,486 -178,974 -546,1349 -368,374 -853,563 -1340,567 -487,4 -975,-178 -1349,-546 -374,-368 -564,-853 -568,-1340 -3,-486 178,-975 546,-1349 369,-374 854,-564 1340,-567 487,-4 975,177 1349,546zm-8166 2850c569,560 1076,1139 1507,1708 452,597 820,1185 1086,1730 287,588 461,1144 504,1629 55,626 -97,1156 -482,1548 -385,391 -913,551 -1540,506 -486,-35 -1044,-200 -1637,-478 -549,-257 -1143,-615 -1747,-1057 -576,-422 -1163,-920 -1731,-1479 -569,-560 -1076,-1139 -1507,-1708 -452,-597 -820,-1185 -1086,-1729 -287,-589 -461,-1144 -504,-1630 -55,-625 97,-1156 482,-1547 385,-392 913,-552 1540,-507 486,35 1044,200 1637,478 549,257 1143,615 1747,1057 576,422 1163,920 1731,1479zm65 2800c-374,-494 -822,-1005 -1335,-1509 -512,-504 -1030,-945 -1530,-1311 -512,-375 -1003,-673 -1445,-880 -398,-186 -738,-294 -996,-313 -89,-6 -114,-35 -124,-25 -9,10 19,35 27,124 23,257 136,596 329,990 214,439 520,925 903,1431 374,494 823,1005 1335,1509 513,504 1031,945 1530,1311 513,375 1004,673 1446,880 398,186 738,294 995,313 90,6 115,35 124,25 10,-10 -18,-35 -26,-124 -23,-257 -137,-595 -329,-990 -215,-439 -520,-925 -904,-1431zm2635 -4153c121,119 183,277 184,435 1,158 -58,316 -177,438 -120,121 -277,182 -435,184l-1 0c-158,1 -316,-58 -437,-177 -122,-120 -183,-277 -184,-435 -2,-158 57,-317 177,-438 119,-121 276,-183 434,-184l1 0c158,-1 317,58 438,177zm-1437 -1414c121,119 182,277 184,435l0 0c1,159 -58,317 -177,438 -119,121 -277,183 -435,184l0 0c-158,1 -317,-58 -438,-177 -121,-119 -182,-277 -184,-435l0 0c-1,-158 58,-317 177,-438 119,-121 277,-182 435,-184l0 0c159,-1 317,58 438,177zm1448 -5452c374,368 564,853 567,1340 4,487 -177,975 -546,1349 -368,374 -853,564 -1340,568 -486,4 -974,-178 -1348,-546 -375,-369 -564,-854 -568,-1340 -4,-487 178,-975 546,-1349 368,-375 853,-564 1340,-568 486,-4 975,178 1349,546zm11179 11615c-4,-572 -228,-1144 -669,-1577 -36,-36 -73,-71 -112,-103 -380,641 -842,1245 -1386,1798 -332,337 -703,656 -1107,956 -200,148 -404,287 -611,417l-5 40c26,28 53,56 80,83 441,434 1016,648 1589,644 573,-5 1144,-228 1578,-669 434,-441 648,-1016 643,-1589zm-15847 -16456c-81,-117 -173,-228 -279,-332 -440,-434 -1015,-648 -1588,-643 -573,5 -1144,228 -1578,669 -434,441 -648,1015 -643,1588 4,573 228,1144 668,1578 105,103 216,193 333,271 126,-207 261,-412 405,-613 293,-409 606,-785 938,-1122 535,-544 1120,-1008 1744,-1396z"/>
      </g>
      <g>
       <path class="fil2" d="M55625 132004c-450,-751 -809,-1540 -1078,-2349 -339,-1022 -532,-2071 -575,-3111 -17,-413 -11,-829 19,-1245 20,-281 50,-559 92,-834 -133,-79 -264,-164 -390,-256 -239,-172 -463,-361 -669,-567 -516,-516 -907,-1114 -1172,-1754 -276,-666 -414,-1373 -414,-2076 0,-703 138,-1409 414,-2076 265,-640 655,-1238 1172,-1754 516,-516 1114,-907 1754,-1172 666,-276 1373,-414 2076,-414 541,0 1086,82 1612,246 320,99 633,230 935,391 114,-206 238,-407 373,-602 248,-360 524,-694 829,-1000 944,-944 2097,-1578 3377,-1918 1308,-348 2748,-384 4227,-124 1376,242 2789,744 4156,1491 1314,718 2585,1661 3739,2815 1153,1153 2096,2425 2814,3739 747,1366 1249,2779 1491,4155 260,1479 224,2919 -123,4228 -340,1279 -975,2432 -1919,3376 -298,299 -626,570 -980,816 -181,125 -365,241 -554,349 197,327 356,673 478,1030 197,573 295,1168 295,1758 0,703 -138,1410 -414,2076 -265,640 -656,1238 -1172,1754 -516,517 -1114,907 -1754,1173 -667,276 -1373,414 -2076,413 -703,0 -1410,-138 -2076,-413 -640,-266 -1238,-656 -1754,-1173 -240,-240 -455,-501 -646,-780 -110,-161 -210,-326 -300,-495 -285,45 -572,79 -861,101 -432,33 -866,41 -1298,23 -845,-36 -1624,-148 -2384,-346 -758,-198 -1491,-480 -2246,-854 -754,-343 -1523,-503 -2242,-483 -704,20 -1356,213 -1891,578 -247,169 -584,106 -754,-142 -59,-87 -90,-185 -94,-283 -30,-719 56,-1309 233,-1789 64,-171 139,-328 225,-471 -52,-8 -105,-15 -157,-22 -366,-49 -751,-71 -1169,-71 -299,1 -543,-241 -544,-541 0,-157 66,-299 173,-398 321,-325 621,-587 909,-793 105,-76 210,-144 313,-206zm-51 -2692c299,901 728,1780 1284,2607l-1 1c23,35 43,73 58,114 104,280 -38,592 -318,696 -141,53 -286,124 -438,217 391,56 764,137 1131,247l-1 1c117,35 222,109 295,218 166,249 98,585 -150,751 -233,154 -420,389 -544,721 -52,141 -93,300 -122,477 493,-187 1027,-288 1580,-304 881,-25 1815,167 2723,580l36 16c690,343 1354,599 2035,776 679,177 1383,278 2156,310 393,17 784,10 1169,-19 381,-29 759,-81 1133,-155 249,-57 511,68 618,311 107,246 237,483 390,706 147,217 320,426 519,624 417,417 895,731 1403,941 526,218 1090,327 1658,327 568,0 1132,-109 1658,-327 508,-210 986,-524 1403,-941 417,-417 731,-895 941,-1402 218,-527 327,-1091 327,-1659 0,-480 -77,-956 -232,-1407 -150,-439 -376,-861 -677,-1247 -24,-33 -46,-68 -64,-107 -126,-272 -8,-595 264,-721 341,-157 661,-338 958,-544 289,-201 567,-432 830,-696 806,-806 1349,-1792 1639,-2887 308,-1157 338,-2437 106,-3759 -222,-1258 -685,-2559 -1377,-3825 -667,-1219 -1548,-2406 -2631,-3489 -1084,-1084 -2270,-1965 -3490,-2632 -1266,-692 -2566,-1155 -3825,-1376 -1321,-233 -2602,-202 -3759,105 -1095,291 -2081,833 -2887,1639 -267,267 -502,550 -706,847 -211,306 -394,633 -551,977l-1 0c-13,30 -29,58 -48,86 -171,245 -509,306 -754,135 -362,-250 -756,-439 -1167,-567 -417,-130 -853,-195 -1291,-195 -568,0 -1132,109 -1659,327 -507,211 -985,524 -1402,941 -417,417 -731,895 -941,1403 -218,526 -327,1091 -327,1658 0,568 109,1132 327,1658 210,508 524,986 941,1403 173,173 351,325 533,456 185,134 378,250 576,350 225,100 361,345 313,597 -69,366 -117,733 -143,1101 -27,368 -32,743 -16,1121 40,947 213,1895 518,2814z"/>
       <g>
        <path class="fil2" d="M70265 136206l52 -27c18,-9 36,-19 54,-29 21,-10 41,-22 62,-33l-168 89zm321 -174c22,-12 44,-25 67,-38l44 -25c22,-13 43,-26 65,-39l42 -25c23,-14 46,-28 69,-42l35 -22c25,-15 50,-31 75,-47l30 -19c27,-17 54,-35 81,-52l24 -16c27,-18 55,-36 82,-55l25 -16c27,-19 54,-37 81,-56l17 -12c29,-20 58,-41 87,-61l17 -12c29,-21 57,-42 86,-63l18 -14c30,-21 59,-43 89,-65l12 -10c29,-22 59,-45 88,-68l13 -10c30,-23 60,-46 89,-70l8 -6c30,-24 60,-49 91,-74l11 -9c30,-25 59,-50 89,-75l10 -8c30,-26 60,-51 90,-77l7 -7c30,-26 60,-52 89,-79l5 -4c30,-27 61,-55 92,-83l4 -4c30,-28 59,-55 88,-83l11 -9c28,-28 57,-55 86,-83l6 -7c30,-29 60,-58 90,-88 335,-335 651,-708 947,-1114l9 -13c75,59 147,122 216,191 438,437 656,1010 656,1583 0,573 -218,1146 -656,1584 -437,437 -1010,656 -1583,656 -573,0 -1146,-219 -1583,-656 -153,-153 -280,-323 -379,-504 13,-6 26,-13 39,-20l321 -174zm-11582 -8644c-1735,-1735 -1735,-4549 0,-6285 726,-726 1641,-1148 2586,-1266 -155,-1654 246,-3145 1260,-4159 1144,-1144 2897,-1509 4805,-1173 2072,364 4302,1539 6200,3436 1898,1898 3072,4129 3437,6201 335,1908 -29,3660 -1174,4804 -1011,1012 -2499,1414 -4149,1262 -117,948 -540,1865 -1267,2592 -1736,1736 -4550,1736 -6285,0 -1152,-1152 -1539,-2779 -1162,-4250 -1471,377 -3098,-10 -4251,-1162zm5226 -9050c-468,170 -985,-72 -1155,-540 -170,-468 72,-985 540,-1155 1390,-503 2980,-479 4543,2 1518,468 3019,1367 4283,2631 1169,1170 2032,2548 2525,3960 505,1446 623,2932 290,4276 -120,484 -610,780 -1095,660 -485,-120 -780,-611 -660,-1095 247,-998 150,-2127 -241,-3246 -403,-1156 -1120,-2295 -2099,-3274 -1057,-1057 -2296,-1804 -3538,-2187 -1197,-368 -2386,-397 -3393,-32zm-3427 7252c-372,-371 -557,-858 -557,-1344 0,-487 185,-974 557,-1345 371,-371 857,-557 1344,-557 487,0 973,186 1345,557 371,371 556,858 556,1345 0,486 -185,973 -556,1344 -372,371 -858,557 -1345,557 -487,0 -973,-186 -1344,-557zm5412 5412c-371,-371 -557,-857 -557,-1344 0,-487 185,-973 557,-1345 371,-371 858,-556 1344,-556 487,0 974,185 1345,556 371,372 557,858 557,1345 0,487 -186,973 -557,1344 -372,372 -858,557 -1345,557 -486,0 -973,-185 -1344,-557zm897 -4846c-120,-120 -180,-278 -180,-436l0 -1c0,-158 60,-316 180,-436 121,-120 278,-180 437,-180l0 0c158,0 316,60 436,180 121,120 181,278 181,436l0 1c0,158 -60,316 -181,436 -120,120 -278,180 -436,180l0 0c-159,0 -316,-60 -437,-180zm-1425 -1425c-120,-121 -181,-279 -181,-437 0,-158 61,-316 181,-436 121,-120 278,-181 436,-181l1 0c158,0 316,61 436,181 121,120 181,278 181,436 0,158 -60,316 -181,437 -120,120 -278,180 -436,180l-1 0c-158,0 -316,-60 -436,-180zm-11072 -4919c0,573 218,1146 655,1583 86,86 177,163 272,232 442,-880 1027,-1701 1755,-2429 335,-335 708,-651 1115,-947l27 -20 -2 -2c-437,-437 -1010,-656 -1583,-656 -573,0 -1146,219 -1584,656 -437,437 -655,1010 -655,1583z"/>
       </g>
      </g>
      <g>
       <path class="fil2" d="M59996 55625c751,-450 1540,-809 2349,-1078 1022,-339 2071,-532 3112,-575 439,-19 879,-11 1317,24 304,24 606,60 905,109 74,-119 153,-237 238,-352 162,-221 342,-432 540,-630 516,-517 1114,-907 1754,-1172 666,-276 1373,-414 2076,-414 703,0 1409,138 2076,414 640,265 1238,655 1754,1172 516,516 907,1114 1172,1754 276,666 414,1373 414,2076 0,535 -79,1070 -237,1587 -97,317 -224,627 -381,927 187,108 369,224 546,348 334,236 648,498 938,788 944,944 1578,2097 1918,3377 348,1308 384,2748 124,4227 -242,1376 -744,2789 -1491,4156 -718,1313 -1661,2585 -2815,3739 -1153,1153 -2425,2096 -3739,2814 -1366,747 -2779,1249 -4155,1491 -1479,260 -2919,224 -4228,-123 -1279,-340 -2432,-975 -3376,-1919 -283,-283 -541,-590 -773,-917 -114,-162 -222,-328 -324,-500 -327,194 -670,351 -1023,470 -564,190 -1151,285 -1734,285 -703,0 -1410,-138 -2076,-414 -640,-265 -1238,-656 -1754,-1172 -517,-516 -907,-1114 -1173,-1754 -276,-667 -413,-1373 -413,-2076 0,-703 138,-1410 414,-2076 265,-640 655,-1238 1172,-1754 227,-227 477,-434 744,-620 149,-103 301,-198 456,-284 -54,-309 -94,-620 -120,-931 -37,-454 -47,-911 -28,-1369 55,-1306 530,-2694 969,-3980 378,-1106 728,-2131 715,-2850 -7,-367 -60,-719 -159,-1046 -96,-319 -236,-617 -420,-887 -169,-247 -106,-584 142,-754 87,-59 185,-90 283,-94 719,-30 1309,55 1789,233 171,64 328,139 471,224 8,-52 16,-104 23,-157 48,-365 70,-750 70,-1168 -1,-299 241,-543 541,-544 157,0 299,66 398,173 325,321 587,621 793,909 76,105 145,210 206,313zm2692 -51c-901,299 -1780,727 -2607,1284l-1 -1c-35,23 -73,43 -114,58 -280,104 -592,-38 -696,-318 -53,-141 -124,-286 -217,-438 -55,391 -137,763 -246,1130l-2 -1c-34,117 -109,222 -218,295 -248,166 -585,99 -751,-150 -154,-232 -388,-420 -721,-543 -141,-52 -300,-93 -478,-122 36,96 70,194 100,293 129,427 198,878 206,1341 17,905 -364,2019 -775,3222 -413,1210 -860,2517 -908,3674 -18,414 -9,826 25,1234 34,409 93,812 178,1207 51,243 -70,498 -305,605 -233,106 -458,233 -672,382 -203,141 -402,307 -594,500 -417,417 -731,895 -941,1403 -218,526 -327,1090 -327,1658 0,568 109,1132 327,1658 210,508 524,986 941,1403 417,417 895,731 1402,941 527,218 1091,327 1659,327 471,0 940,-75 1386,-226 437,-147 856,-366 1236,-656l1 0c28,-21 58,-40 91,-56 268,-131 592,-19 723,249 150,308 325,606 527,890 194,273 413,533 659,779 806,806 1792,1348 2887,1639 1157,308 2437,338 3759,106 1258,-222 2559,-685 3825,-1377 1220,-667 2406,-1548 3489,-2631 1084,-1084 1965,-2270 2632,-3490 692,-1266 1155,-2567 1376,-3825 233,-1321 203,-2602 -105,-3759 -291,-1095 -833,-2081 -1639,-2887 -250,-250 -516,-473 -797,-670 -285,-201 -588,-378 -905,-529 -26,-13 -52,-27 -77,-44 -248,-168 -312,-506 -144,-754 243,-359 426,-748 550,-1153 126,-412 189,-841 189,-1269 0,-568 -109,-1132 -327,-1659 -210,-507 -524,-985 -941,-1402 -417,-417 -895,-731 -1403,-941 -526,-218 -1091,-327 -1658,-327 -568,0 -1132,109 -1658,327 -508,210 -986,524 -1403,941 -161,161 -306,330 -435,506 -132,179 -248,367 -349,562l0 -1c-109,210 -347,331 -590,281 -384,-78 -772,-132 -1162,-163 -392,-31 -789,-38 -1188,-21 -947,40 -1895,213 -2814,518z"/>
       <path class="fil2" d="M64612 59004c1735,-1735 4549,-1735 6285,0 726,726 1148,1640 1266,2586 1654,-155 3145,246 4159,1260 1144,1144 1509,2897 1173,4805 -364,2072 -1539,4302 -3436,6200 -1898,1898 -4129,3072 -6201,3436 -1908,336 -3660,-28 -4804,-1173 -1012,-1011 -1414,-2499 -1262,-4149 -947,-117 -1865,-540 -2592,-1267 -1736,-1736 -1736,-4550 0,-6285 1152,-1152 2779,-1539 4250,-1162 -377,-1472 10,-3099 1162,-4251zm1798 1798c371,-371 858,-556 1344,-556 487,0 974,185 1345,556 371,372 557,858 557,1345 0,487 -186,973 -557,1344 -371,372 -858,557 -1345,557 -486,0 -973,-185 -1344,-557 -371,-371 -557,-857 -557,-1344 0,-487 186,-973 557,-1345zm7000 3207c-3,-147 30,-298 104,-438 32,-62 71,-119 116,-170 204,-272 553,-416 908,-342 222,46 408,170 535,338 26,18 52,36 78,56 145,105 270,211 376,316 1038,1038 1248,2647 748,4409 -450,1586 -1489,3328 -3012,4850 -1522,1523 -3264,2562 -4850,3012 -1762,500 -3371,290 -4409,-748 -96,-96 -191,-206 -285,-331 -86,-113 -165,-235 -239,-365 -228,-403 -113,-906 252,-1173 111,-105 251,-183 411,-221 867,-203 1826,-630 2800,-1234 994,-615 1994,-1411 2922,-2338 960,-961 1775,-1992 2395,-3011 548,-901 944,-1792 1150,-2610zm-7297 10429c504,109 1125,59 1804,-133 1302,-369 2760,-1251 4066,-2557 1306,-1306 2187,-2764 2557,-4065 192,-679 242,-1300 133,-1805 -237,554 -530,1118 -873,1682 -700,1150 -1605,2299 -2655,3350 -1022,1022 -2133,1904 -3246,2594 -597,369 -1196,683 -1786,934zm-269 -7326c120,-120 278,-180 436,-180l1 0c158,0 316,60 436,180 120,121 180,278 180,437l0 0c0,158 -60,316 -180,436 -120,120 -278,181 -436,181l-1 0c-158,0 -316,-61 -436,-181 -120,-120 -180,-278 -180,-436l0 0c0,-159 60,-316 180,-437zm1425 -1425c121,-120 279,-181 437,-181 158,0 316,61 436,181 120,120 181,278 181,436l0 1c0,158 -61,316 -181,436 -120,121 -278,181 -436,181 -158,0 -316,-60 -437,-181 -120,-120 -180,-278 -180,-436l0 -1c0,-158 60,-316 180,-436zm-6271 528c371,-372 857,-557 1344,-557 487,0 973,185 1345,557 371,371 557,858 557,1344 0,487 -186,973 -557,1345 -372,371 -858,557 -1345,557 -487,0 -973,-186 -1344,-557 -372,-372 -557,-858 -557,-1345 0,-486 185,-973 557,-1344zm11289 -11502c-573,0 -1146,219 -1583,656 -14,14 -27,27 -40,41l-1 2 -19 20 -1 0c-19,21 -38,42 -56,63l-1 1 -17 20 -2 3 -16 20 -2 1c-11,14 -23,29 -34,43l-1 1 -15 20 -1 2c833,434 1610,997 2304,1691 335,335 651,708 947,1115 35,47 69,95 102,143l19 -19c437,-437 656,-1010 656,-1583 0,-573 -219,-1146 -656,-1584 -437,-437 -1010,-656 -1583,-656zm-16452 15633l-16 9 -10 6 -10 6 -11 7 -15 9 -9 6 -18 11 -4 3 -18 12 -7 4 -14 10 -10 7 -14 9 -8 5 -17 12 -7 5 -17 13 -3 2 -18 14 -6 4 -17 13 -6 4 -18 15 -1 0 -18 15 -7 6 -17 14 -3 2 -20 17 0 0c-14,13 -28,25 -42,37l-2 2 -19 18 -2 1 -18 17 -3 3 -19 18 -2 2 -20 20c-437,437 -656,1010 -656,1583 0,573 219,1146 656,1583 438,437 1011,656 1584,656 573,0 1146,-219 1583,-656 13,-13 26,-26 38,-39l4 -4 16 -17 4 -4 17 -19 1 -1c6,-6 12,-13 18,-20l1 -1 18 -21 1 -1 16 -19 4 -5 12 -14 7 -9 13 -17 2 -2 14 -18 6 -7 11 -15 2 -2c-42,-29 -84,-59 -126,-89 -406,-296 -779,-612 -1114,-947 -680,-680 -1235,-1440 -1665,-2253l-1 0z"/>
      </g>
      <g>
       <path class="fil2" d="M92909 150008c-849,-213 -1661,-516 -2423,-899 -963,-482 -1840,-1088 -2607,-1793 -405,-373 -781,-775 -1124,-1202 -257,-320 -497,-657 -716,-1008 -80,14 -160,25 -239,34 -213,26 -428,39 -643,39 -730,0 -1429,-147 -2069,-412 -666,-276 -1264,-678 -1761,-1175 -980,-980 -1586,-2334 -1586,-3830 0,-730 146,-1429 411,-2069 276,-666 678,-1263 1175,-1760 352,-352 757,-658 1203,-906 281,-156 576,-288 884,-393 -22,-124 -42,-250 -58,-377 -39,-308 -59,-609 -59,-902 0,-1335 366,-2599 1030,-3744 680,-1171 1673,-2215 2903,-3077 1143,-801 2498,-1446 3992,-1884 1437,-421 3003,-654 4634,-654 1632,0 3197,233 4634,654 1494,438 2849,1083 3992,1884 1230,862 2223,1906 2903,3077 664,1145 1031,2409 1031,3744 0,293 -19,584 -54,872 -14,108 -29,215 -48,322 355,101 696,236 1018,403 499,259 951,591 1341,981 497,497 899,1094 1175,1760 265,640 411,1339 411,2069 0,731 -146,1430 -411,2070 -276,666 -678,1263 -1175,1760 -497,497 -1094,899 -1761,1175 -640,265 -1339,412 -2069,412 -262,0 -524,-20 -785,-58 -120,-17 -238,-38 -354,-63 -222,358 -462,699 -720,1023 -350,439 -735,852 -1151,1235 -636,585 -1280,1061 -1960,1457 -671,391 -1376,702 -2144,962l0 1c-785,292 -1449,725 -1944,1249 -484,512 -809,1110 -929,1746 -56,294 -339,488 -633,433 -104,-19 -195,-67 -268,-134 -529,-487 -886,-965 -1099,-1429 -77,-166 -134,-330 -175,-492 -43,31 -85,63 -127,95 -292,224 -581,480 -876,776 -211,213 -555,214 -767,2 -111,-110 -164,-258 -159,-403 -4,-457 24,-855 81,-1204 21,-128 47,-250 76,-367zm-1939 -1867c848,425 1773,744 2751,936l0 1c41,8 82,21 121,39 272,124 392,446 268,718 -63,136 -114,289 -156,462 315,-237 636,-443 973,-624l0 1c107,-58 234,-80 363,-54 293,58 483,344 425,637 -55,273 -22,571 126,893 63,137 146,278 251,424 217,-481 522,-930 903,-1333 611,-646 1416,-1175 2356,-1524l1 1 16 -5c703,-237 1348,-521 1962,-878 609,-356 1190,-786 1768,-1318 376,-345 722,-716 1036,-1111 307,-385 581,-787 818,-1202 111,-242 386,-371 648,-293 200,60 404,106 611,136 202,29 413,44 632,44 590,0 1149,-116 1657,-326 526,-218 1003,-540 1404,-942 401,-401 723,-877 941,-1403 211,-508 327,-1068 327,-1658 0,-589 -116,-1149 -327,-1657 -218,-526 -540,-1002 -941,-1404 -315,-315 -675,-580 -1069,-784 -387,-201 -808,-345 -1253,-421l0 -1 -38 -8c-291,-71 -469,-365 -397,-656 59,-237 105,-483 136,-735 30,-243 45,-491 45,-741 0,-1140 -314,-2220 -882,-3200 -601,-1036 -1485,-1963 -2584,-2733 -1046,-733 -2293,-1325 -3678,-1731 -1334,-391 -2796,-607 -4328,-607 -1532,0 -2994,216 -4328,607 -1384,406 -2632,998 -3678,1731 -1099,770 -1983,1697 -2584,2733 -568,980 -882,2060 -882,3200 0,269 16,525 47,767 31,245 78,490 140,733l11 39c66,293 -116,584 -408,650 -397,92 -772,239 -1118,430 -350,195 -673,440 -960,727 -401,402 -723,878 -941,1404 -211,508 -327,1068 -327,1657 0,1196 485,2278 1268,3061 402,402 878,724 1404,942 508,210 1067,326 1657,326 178,0 350,-10 516,-29 179,-22 347,-52 505,-90 228,-55 474,44 597,257 240,418 516,821 825,1205 308,384 647,746 1014,1083 697,641 1490,1190 2356,1624z"/>
       <path class="fil2" d="M92035 144355c-2454,0 -4444,-1990 -4444,-4445 0,-1026 348,-1971 932,-2723 -1279,-1060 -2049,-2398 -2049,-3832 0,-1618 981,-3115 2568,-4227 1723,-1207 4130,-1954 6814,-1954 2684,0 5091,747 6814,1954 1587,1112 2568,2609 2568,4227 0,1431 -767,2767 -2042,3826 587,753 937,1700 937,2729 0,2455 -1989,4445 -4444,4445 -1629,0 -3053,-877 -3827,-2184 -774,1307 -2198,2184 -3827,2184zm3821 -10517c-374,0 -736,-76 -1070,-214 -349,-145 -660,-353 -914,-608 -255,-255 -463,-565 -608,-914 -138,-334 -215,-696 -215,-1070 0,-375 77,-736 215,-1070 145,-350 353,-660 608,-915 254,-255 565,-463 914,-607 334,-139 696,-215 1070,-215 375,0 736,76 1070,215 350,144 660,352 915,607 255,255 462,565 607,915 138,334 215,695 215,1070 0,374 -77,736 -215,1070 -145,349 -352,659 -607,914 -255,255 -565,463 -915,608 -334,138 -695,214 -1070,214zm-975 3912c-170,0 -324,-69 -436,-181 -112,-111 -181,-266 -181,-436 0,-170 69,-324 181,-436l0 -1c112,-111 266,-180 436,-180 171,0 325,69 437,180 112,112 181,266 181,437 0,170 -69,324 -181,436l-1 0c-112,112 -266,181 -436,181zm2016 0c-170,0 -324,-69 -436,-181l0 0c-112,-112 -181,-266 -181,-436 0,-170 69,-324 181,-436l0 -1c112,-111 266,-180 436,-180 170,0 324,69 436,180l0 1c112,112 181,266 181,436 0,170 -69,324 -181,436l0 0c-112,112 -266,181 -436,181zm-4862 4062c-525,0 -1000,-213 -1344,-557 -345,-344 -557,-820 -557,-1345 0,-525 212,-1000 557,-1344 344,-344 819,-557 1344,-557 525,0 1000,213 1345,557 344,344 556,819 556,1344 0,525 -212,1001 -556,1345 -345,344 -820,557 -1345,557zm7654 0c-525,0 -1000,-213 -1344,-557 -344,-344 -557,-820 -557,-1345 0,-525 213,-1000 557,-1344 344,-344 819,-557 1344,-557 525,0 1000,213 1345,557 344,344 556,819 556,1344 0,525 -212,1001 -556,1345 -345,344 -820,557 -1345,557zm-4217 -9857c114,47 243,73 384,73 141,0 270,-26 384,-73 116,-48 225,-123 320,-219 96,-96 171,-204 219,-320 47,-114 73,-244 73,-384 0,-141 -26,-270 -73,-384 -48,-116 -123,-225 -219,-321 -95,-95 -204,-170 -320,-218 -114,-47 -243,-73 -384,-73 -141,0 -270,26 -384,73 -116,48 -225,123 -320,218 -96,96 -171,205 -219,321 -47,114 -73,243 -73,384 0,140 26,270 73,384 48,116 123,224 219,320 95,96 204,170 320,219zm-11898 9391c405,405 965,656 1583,656 49,0 97,-2 146,-5 -175,-716 -267,-1461 -267,-2227 0,-473 41,-961 119,-1458 38,-246 86,-488 143,-725 -16,-21 -31,-41 -46,-62 -31,-1 -63,-2 -95,-2 -618,0 -1178,251 -1583,656 -405,405 -656,965 -656,1583 0,619 251,1179 656,1584zm22844 615c138,27 280,41 425,41 618,0 1178,-251 1583,-656 405,-405 656,-965 656,-1584 0,-618 -251,-1178 -656,-1583 -405,-405 -965,-656 -1583,-656 -140,0 -276,13 -409,38l-19 26c56,237 104,479 142,725 78,497 119,985 119,1458 0,753 -89,1486 -258,2191z"/>
      </g>
     </g>
     <g>
      <circle class="fil0" cx="96123" cy="95877" r="6029"/>
      <g>
       <path class="fil3" d="M72166 101293l0 -52c166,-1067 209,-2321 1052,-3563l0 0c56,-73 114,-145 175,-215 870,-995 2102,-1493 3693,-1493 1574,0 2799,493 3678,1479 846,938 1271,2204 1271,3797 0,1540 -406,2785 -1214,3735 -863,1007 -2048,1512 -3562,1512 -2133,0 -3619,-796 -4463,-2389 -420,-794 -630,-1732 -630,-2811zm2118 -69c0,998 216,1806 645,2425 495,721 1223,1081 2180,1081 965,0 1690,-363 2181,-1088 417,-619 626,-1432 626,-2439 0,-1019 -206,-1827 -619,-2425 -481,-696 -1209,-1045 -2188,-1045 -981,0 -1713,351 -2199,1053 -417,602 -626,1415 -626,2438zm9014 8141l1593 0 0 -3628c135,263 310,457 528,583 218,126 491,187 820,187 353,0 643,-71 872,-215 230,-143 410,-363 543,-662 133,-298 223,-677 275,-1135 50,-457 76,-1002 76,-1630 0,-621 -29,-1155 -83,-1603 -57,-450 -154,-820 -294,-1111 -137,-292 -325,-507 -557,-645 -232,-140 -524,-208 -877,-208 -334,0 -618,75 -853,227 -235,152 -415,375 -545,666l0 -709 -1498 0 0 9883zm1567 -6738c0,-355 7,-661 23,-917 17,-253 52,-464 107,-628 57,-166 137,-284 246,-362 109,-76 256,-114 441,-114 168,0 299,45 396,132 97,88 171,223 220,411 48,185 79,421 93,708 14,287 21,626 21,1022 0,393 -5,732 -14,1021 -10,287 -38,524 -85,711 -50,188 -124,327 -221,420 -97,92 -232,140 -410,140 -194,0 -346,-50 -453,-150 -109,-99 -191,-253 -246,-462 -57,-208 -90,-471 -102,-792 -12,-319 -16,-699 -16,-1140zm7335 1349c0,467 -59,808 -178,1026 -118,216 -322,325 -614,325 -298,0 -502,-140 -616,-419 -114,-278 -171,-726 -171,-1339 0,-79 0,-152 0,-223 0,-74 5,-150 15,-223l3116 0 0 -514c0,-283 -4,-546 -14,-792 -7,-244 -28,-472 -61,-683 -34,-210 -81,-403 -145,-576 -66,-175 -154,-331 -265,-476 -200,-263 -448,-460 -749,-590 -301,-131 -666,-194 -1098,-194 -855,0 -1481,241 -1879,727 -119,145 -211,306 -280,486 -69,180 -118,382 -154,602 -33,218 -54,460 -64,721 -9,260 -14,545 -14,850 0,361 2,695 9,1003 7,308 31,592 69,853 40,261 100,500 180,716 81,213 192,412 334,593 195,229 434,398 723,502 287,104 640,156 1060,156 789,0 1372,-182 1744,-545 372,-362 559,-934 559,-1716 0,-40 0,-83 0,-125 0,-41 -4,-90 -14,-145l-1493 0zm-1579 -1934c0,-80 -2,-144 -7,-194 -4,-50 -7,-86 -7,-109 0,-436 57,-756 169,-958 109,-201 315,-303 616,-303 154,0 280,24 379,73 100,50 178,126 232,225 55,102 95,233 119,392 23,161 35,350 35,571l0 303 -1536 0zm4321 4280l1593 0 0 -4365c0,-451 52,-782 154,-998 102,-216 292,-325 569,-325 260,0 434,88 524,261 87,175 132,448 132,818l0 4609 1593 0 0 -5372c0,-546 -140,-958 -419,-1235 -280,-278 -671,-417 -1174,-417 -315,0 -592,75 -836,225 -244,149 -446,367 -607,654l0 -695 -1529 0 0 6840zm5961 0l1706 0 0 -4010 2890 0 0 -1450 -2890 0 0 -2147 3063 0 0 -1494 -4769 0 0 9101zm8219 -2346c0,467 -59,808 -177,1026 -119,216 -323,325 -614,325 -299,0 -503,-140 -616,-419 -114,-278 -171,-726 -171,-1339 0,-79 0,-152 0,-223 0,-74 5,-150 14,-223l3117 0 0 -514c0,-283 -5,-546 -14,-792 -7,-244 -29,-472 -62,-683 -33,-210 -80,-403 -144,-576 -67,-175 -155,-331 -266,-476 -199,-263 -448,-460 -749,-590 -301,-131 -666,-194 -1097,-194 -856,0 -1482,241 -1880,727 -118,145 -211,306 -279,486 -69,180 -119,382 -155,602 -33,218 -54,460 -63,721 -10,260 -15,545 -15,850 0,361 3,695 10,1003 7,308 31,592 68,853 41,261 100,500 181,716 80,213 192,412 334,593 194,229 434,398 723,502 287,104 640,156 1059,156 789,0 1372,-182 1745,-545 372,-362 559,-934 559,-1716 0,-40 0,-83 0,-125 0,-41 -5,-90 -14,-145l-1494 0zm-1578 -1934c0,-80 -2,-144 -7,-194 -5,-50 -7,-86 -7,-109 0,-436 57,-756 168,-958 109,-201 315,-303 616,-303 154,0 280,24 380,73 99,50 177,126 232,225 54,102 95,233 118,392 24,161 36,350 36,571l0 303 -1536 0zm4079 2005l0 270c0,754 180,1306 538,1659 358,354 915,531 1671,531 735,0 1292,-168 1666,-502 375,-337 562,-804 562,-1406 0,-315 -52,-583 -157,-808 -104,-225 -248,-429 -433,-614 -185,-184 -406,-362 -657,-530 -253,-169 -528,-356 -829,-560 -140,-97 -263,-185 -373,-263 -108,-78 -199,-156 -270,-232 -71,-76 -125,-157 -163,-240 -38,-82 -55,-175 -55,-277 0,-175 57,-320 173,-431 116,-112 275,-166 479,-166 273,0 472,76 592,230 124,151 185,391 185,720l0 145 1394 0 0 -147c0,-1420 -692,-2128 -2074,-2128 -723,0 -1270,161 -1642,481 -372,322 -560,784 -560,1384 0,284 41,531 121,744 83,213 199,408 351,590 154,180 344,353 571,524 225,168 486,348 778,543 156,106 301,201 429,284 130,85 244,166 339,247 94,83 165,166 218,253 49,88 75,190 75,306 0,209 -63,372 -192,493 -125,121 -303,180 -530,180 -287,0 -486,-83 -600,-249 -114,-166 -171,-443 -171,-829l0 -202 -1436 0zm8535 1157l182 1095c-339,73 -652,109 -941,109 -926,0 -1472,-304 -1635,-910 -74,-278 -111,-726 -111,-1347l0 -4242 -911 0 0 -967 911 0 0 -1825 1237 -749 0 2574 1265 0 0 967 -1265 0 0 4299c0,365 31,609 90,728 99,194 305,292 623,292 149,0 334,-8 555,-24z"/>
       <path class="fil3" d="M115025 79602l-6347 7296c1504,1478 2638,3131 3400,4697l-4669 2698c0,0 -1892,-4442 -5454,-7120 410,942 632,1984 632,3074 0,4281 -3492,7778 -7769,7778 -4503,0 -8070,-3863 -7756,-8323l3972 479c-536,1975 963,4016 3078,4016 1744,0 3191,-1430 3191,-3191 0,-4687 -5328,-5834 -9133,-4221 -2368,1007 -4273,2486 -6880,4495 -2665,-2494 -5437,-4892 -8214,-7328l2733 -3105 7042 6880c531,-432 1141,-885 1809,-1343l-4491 -6029 2603 -1801 4064 6487c1233,-675 2602,-1303 4102,-1787l-3418 -10716 5175 -1248 2141 11088c819,-92 1643,-140 2472,-136l1910 -9020 3753 872 -2677 8428c2817,1768 3578,2549 5578,4955l7714 -9236 1439 1361z"/>
      </g>
      <path class="fil4" d="M85575 112548l58 2168 2419 -141 35 773 -2618 2483 24 1972 5083 -59 -12 -2171 -2418 176 2219 -2008 -270 -2700 -517 -493 -4003 0zm10061 -82l-3182 140 -1221 364 177 6833 4097 -59 1068 -152 153 -6211 -1092 -915zm-1021 5189l-1362 23 -47 -3087 1503 -118 -94 3182zm3017 -5107l59 2168 2418 -141 35 773 -2618 2483 24 1972 5083 -59 -12 -2171 -2418 176 2219 -2008 -270 -2700 -517 -493 -4003 0zm5189 1054l223 1994 1397 -669 -70 4947 2406 -106 -35 -7220 -2207 47 -1714 1007z"/>
      <polygon class="fil3" points="76666,109003 115580,109003 115580,109727 76666,109727 "/>
     </g>
    </g>
   </g>
  </g>
 </g>
</svg>
