<?xml version="1.0" encoding="UTF-8"?>
<!DOCTYPE svg PUBLIC "-//W3C//DTD SVG 1.1//EN" "http://www.w3.org/Graphics/SVG/1.1/DTD/svg11.dtd">
<!-- Creator: CorelDRAW X7 -->
<svg xmlns="http://www.w3.org/2000/svg" xml:space="preserve" width="1920px" height="1000px" version="1.1" style="shape-rendering:geometricPrecision; text-rendering:geometricPrecision; image-rendering:optimizeQuality; fill-rule:evenodd; clip-rule:evenodd"
viewBox="0 0 192000 100000"
 xmlns:xlink="http://www.w3.org/1999/xlink">
 <defs>
  <style type="text/css">
   <![CDATA[
    .str0 {stroke:#FFE16B;stroke-width:600.01;stroke-linecap:round;stroke-linejoin:round;stroke-dasharray:600.009567 1800.028701}
    .fil0 {fill:none}
    .fil4 {fill:#9EE3CC}
    .fil1 {fill:whitesmoke}
    .fil5 {fill:white}
    .fil2 {fill:gray;fill-rule:nonzero}
    .fil3 {fill:#FFE16B;fill-rule:nonzero}
   ]]>
  </style>
 </defs>
 <g id="Layer_x0020_1">
  <metadata id="CorelCorpID_0Corel-Layer"/>
  <g id="_1659027276032">
   <rect class="fil0" width="192000" height="100000"/>
   <g>
    <rect class="fil1" x="38849" y="28254" width="113800" height="49193"/>
    <polygon class="fil2" points="41089,29137 41222,24905 43881,24861 43779,22348 38400,22759 38444,31400 44219,31694 44219,28961 "/>
    <path id="1" class="fil2" d="M51802 22465l-6319 103 -220 8715 2586 294 4336 -179 308 -1663 -691 -7270zm-3997 6599l74 -4086 1631 89 191 3923 -1896 74z"/>
    <path id="2" class="fil2" d="M56784 22333l44 1220 -2836 44 -793 1381 147 4306 1219 1220 2293 -74 29 1426 2778 -191 -15 -1235 2778 -220 793 -1337 -117 -4203 -941 -1132 -2557 -59 0 -1263 -2822 117zm-1190 3659l1396 -44 0 2043 -1308 29 -88 -2028zm5305 15l30 1896 -1294 0 0 -1925 1264 29z"/>
    <polygon id="3" class="fil2" points="68659,31724 71598,31636 71524,26492 71524,22465 68614,22495 68629,23656 67674,25258 66895,26536 66822,22612 64132,22612 64147,31415 66880,31562 66866,30313 67938,28491 68644,27462 "/>
    <path id="4" class="fil2" d="M76521 28843l558 103 -132 2837 3013 -162 -265 -9141 -4188 -15 -2219 265 -221 4923 985 500 -1808 2733 2660 1029 1617 -3072zm793 -2145l-1499 29 -14 -1925 1543 -118 -30 2014z"/>
    <polygon id="5" class="fil2" points="83766,32106 84912,32547 88689,22348 87484,21936 "/>
    <polygon id="6" class="fil2" points="38281,36500 38143,43476 40314,43487 40337,39803 40984,41154 42231,41062 42809,39768 42959,43522 45119,43372 44853,36338 42970,36269 41561,39018 40129,36269 "/>
    <path id="7" class="fil2" d="M51321 38995l-1675 -2738 -2033 81 -1443 2992 -301 4134 1987 35 58 -1236 1651 -139 116 1433 2079 -93 -439 -4469zm-3327 1536l104 -1040 601 -1305 624 1328 80 936 -1409 81z"/>
    <path id="8" class="fil2" d="M56633 35299l578 -878 -1386 -35 -104 382 -162 173 -404 11 -139 -231 -104 -346 -1374 46 728 1063 335 300 1432 58 600 -543zm-600 8258l2310 -70 -58 -4042 0 -3164 -2287 23 12 912 -751 1259 -612 1005 -58 -3084 -2113 0 11 6918 2148 116 -11 -982 843 -1432 554 -809 12 3350z"/>
    <polygon id="9" class="fil2" points="59636,36500 59498,43476 61669,43487 61692,39803 62339,41154 63586,41062 64163,39768 64314,43522 66473,43372 66208,36338 64325,36269 62916,39018 61484,36269 "/>
    <polygon id="10" class="fil2" points="70816,40762 70804,41697 67617,41512 67443,43545 72017,43672 73103,42355 72987,36223 70816,36165 70816,38948 69545,38821 69476,36246 67293,36292 67397,40762 "/>
    <polygon id="11" class="fil2" points="77618,43557 79928,43487 79871,39445 79871,36154 77584,36246 77595,38937 76232,39041 76175,36396 74061,36396 74073,43314 76221,43314 76209,40866 77607,40808 "/>
    <path id="12" class="fil2" d="M86234 38995l-1674 -2738 -2033 81 -1444 2992 -300 4134 1986 35 58 -1236 1652 -139 115 1433 2079 -93 -439 -4469zm-3326 1536l104 -1040 601 -1305 623 1328 81 936 -1409 81z"/>
    <path id="13" class="fil2" d="M92840 39976l-115 -2760 -959 -970 -4342 115 34 7161 2276 12 -81 -2357 2564 -161 623 -1040zm-3245 -1721l104 -127 1097 24 35 1351 -1224 81 -12 -1329z"/>
    <polygon id="14" class="fil2" points="97160,43557 99470,43487 99412,39445 99412,36154 97125,36246 97137,38937 95774,39041 95716,36396 93603,36396 93614,43314 95762,43314 95751,40866 97148,40808 "/>
    <polygon id="15" class="fil2" points="104170,43557 106480,43487 106422,39445 106422,36281 104136,36304 104147,37216 103396,38475 102784,39480 102727,36396 100613,36396 100625,43314 102773,43430 102761,42448 103604,41016 104159,40207 "/>
    <polygon id="16" class="fil2" points="107531,36373 107624,43487 109922,43406 109841,40685 111111,41537 111238,43534 113664,43395 113179,40375 111758,39751 113144,38898 113329,36465 110984,36315 110927,38323 109749,39176 109702,36338 "/>
    <path id="17" class="fil2" d="M119658 38995l-1675 -2738 -2032 81 -1444 2992 -300 4134 1986 35 58 -1236 1651 -139 116 1433 2079 -93 -439 -4469zm-3326 1536l104 -1040 600 -1305 624 1328 81 936 -1409 81z"/>
    <path class="fil2" d="M39385 52302l541 0 0 -5193 -452 0c-13,328 -111,569 -294,725 -183,156 -460,234 -831,234l-62 0 0 436 1098 0 0 3798z"/>
    <path id="1" class="fil2" d="M43254 52302l551 0 0 -1314 484 0 0 -508 -484 0 0 -3371 -500 0 -1922 3371 0 508 1871 0 0 1314zm-1394 -1822l1461 -2635 -67 2635 -1394 0z"/>
    <polygon id="2" class="fil2" points="46599,50673 48260,50673 48260,50068 46599,50068 "/>
    <path id="3" class="fil2" d="M51903 52302l540 0 0 -5193 -451 0c-14,328 -112,569 -295,725 -182,156 -459,234 -830,234l-62 0 0 436 1098 0 0 3798z"/>
    <path id="4" class="fil2" d="M54007 50938c0,481 112,845 338,1095 226,249 557,374 994,374 219,0 416,-40 591,-121 175,-82 322,-200 445,-357 121,-156 213,-349 278,-576 63,-228 95,-486 95,-777 0,-266 -30,-502 -94,-711 -61,-208 -149,-383 -262,-525 -114,-143 -250,-250 -410,-323 -160,-74 -338,-110 -535,-110 -203,0 -375,35 -517,106 -144,71 -239,159 -286,264l185 -1556 1721 0 0 -508 -2174 0 -283 2635 491 43c50,-149 138,-266 261,-350 123,-84 280,-126 468,-126 564,0 847,409 847,1225 0,414 -72,728 -215,940 -144,213 -351,319 -620,319 -247,0 -439,-79 -575,-237 -136,-157 -203,-383 -203,-677l0 -47 -540 0z"/>
    <path id="5" class="fil2" d="M61734 52312l0 -410c-15,5 -31,8 -47,8 -14,0 -26,0 -39,0 -82,0 -140,-22 -174,-66 -33,-43 -51,-113 -51,-210l0 -2257c0,-364 -84,-629 -255,-794 -171,-165 -438,-249 -803,-249 -392,0 -680,90 -860,272 -181,180 -275,466 -283,857l508 0 0 -63c0,-212 47,-368 141,-466 95,-98 239,-148 434,-148 193,0 339,35 434,105 96,68 144,185 144,348l0 362c0,65 -11,119 -31,164 -22,43 -56,80 -105,114 -48,32 -110,62 -188,90 -77,27 -172,60 -285,101 -196,61 -366,126 -509,191 -144,63 -264,141 -358,231 -94,91 -164,203 -211,334 -47,133 -71,299 -71,499 0,340 78,605 234,793 154,187 371,281 649,281 214,0 399,-51 555,-155 155,-102 272,-255 351,-457 9,179 59,316 146,412 88,95 209,144 363,144 47,0 96,-3 145,-10 51,-7 107,-15 166,-21zm-851 -2090l0 764c0,147 -18,279 -54,395 -35,117 -85,216 -149,296 -65,80 -141,141 -231,183 -89,42 -188,63 -299,63 -156,0 -275,-52 -358,-157 -85,-105 -127,-255 -127,-449 0,-129 12,-235 38,-320 24,-83 62,-153 111,-210 51,-56 115,-103 190,-142 76,-38 165,-75 269,-112 133,-47 251,-92 353,-134 104,-42 188,-101 257,-177z"/>
    <path id="6" class="fil2" d="M62293 50809c0,275 32,519 97,728 64,210 158,382 285,515 112,127 251,217 416,272 166,55 355,83 567,83 228,0 429,-35 603,-106 172,-71 317,-174 434,-309 117,-136 204,-301 262,-498 58,-197 86,-420 86,-669 0,-374 -86,-673 -260,-901 -173,-225 -428,-364 -764,-415 275,-55 489,-188 638,-399 149,-211 225,-484 225,-816 0,-118 -22,-247 -64,-386 -41,-139 -111,-268 -208,-387 -97,-117 -224,-216 -383,-294 -159,-79 -355,-118 -589,-118 -191,0 -369,32 -533,98 -164,66 -305,161 -426,286 -121,124 -215,277 -284,458 -69,180 -102,387 -102,619l0 2239zm540 33l0 -2252c0,-319 69,-567 206,-742 136,-176 320,-264 552,-264 144,0 264,23 356,69 95,46 168,108 224,187 55,78 94,170 115,275 20,106 31,221 31,344 0,159 -19,293 -58,400 -37,107 -94,193 -169,259 -74,65 -167,112 -277,141 -110,28 -238,43 -382,43l-371 0 0 476 430 0c347,0 595,91 742,274 148,183 222,448 222,792 0,348 -63,610 -189,789 -127,177 -328,266 -608,266 -550,0 -824,-352 -824,-1057z"/>
    <path id="7" class="fil2" d="M68017 51123l-540 0c0,276 -59,474 -176,595 -118,120 -292,181 -522,181 -211,0 -375,-55 -490,-164 -117,-110 -175,-262 -175,-456 0,-114 16,-211 47,-291 32,-80 79,-148 143,-207 63,-59 139,-112 231,-158 93,-45 199,-91 320,-138 207,-81 380,-163 521,-245 140,-82 253,-170 339,-266 85,-95 146,-201 183,-317 36,-117 55,-250 55,-398 0,-154 -28,-286 -85,-394 -56,-109 -125,-199 -207,-273 -180,-172 -441,-258 -782,-258 -405,0 -704,93 -899,277 -195,184 -293,468 -293,852l516 0c0,-255 51,-434 153,-537 102,-104 253,-156 452,-156 201,0 353,54 454,160 101,106 151,257 151,454 0,45 -4,92 -14,141 -9,50 -33,102 -71,156 -39,54 -100,108 -179,163 -81,55 -192,110 -333,165 -234,90 -429,176 -586,258 -159,84 -285,172 -383,266 -97,94 -167,201 -209,318 -43,117 -64,254 -64,411 0,388 99,676 298,864 199,187 502,281 910,281 188,0 358,-25 510,-77 151,-52 282,-131 389,-237 109,-108 193,-241 250,-400 58,-160 86,-349 86,-570z"/>
    <path id="8" class="fil2" d="M68457 53527c148,44 269,66 363,66 162,0 302,-23 419,-68 117,-44 218,-113 301,-204 85,-91 157,-208 221,-349 63,-142 122,-311 177,-507l1186 -4018 -556 0 -846 3107 -823 -3107 -587 0 1134 3886c-43,140 -83,258 -125,359 -40,99 -85,180 -133,243 -48,63 -105,109 -168,139 -63,28 -137,43 -224,43 -58,0 -113,-4 -167,-14 -54,-9 -112,-27 -172,-53l0 477z"/>
    <path id="9" class="fil2" d="M73237 50947c-11,326 -69,570 -177,736 -107,165 -260,248 -461,248 -137,0 -252,-31 -345,-93 -93,-61 -168,-155 -223,-283 -55,-128 -96,-290 -121,-488 -24,-198 -36,-430 -36,-698 0,-266 12,-496 37,-690 24,-195 66,-357 123,-484 56,-128 131,-222 225,-284 94,-62 211,-93 351,-93 187,0 332,70 440,209 106,139 162,346 170,622l535 0 0 -79c0,-189 -27,-359 -82,-511 -55,-153 -133,-282 -234,-389 -102,-106 -224,-186 -368,-243 -145,-56 -306,-85 -485,-85 -441,0 -768,166 -981,498 -214,332 -320,832 -320,1501 0,698 102,1217 306,1557 206,340 525,509 957,509 391,0 694,-125 908,-374 213,-248 321,-611 321,-1086l-540 0z"/>
    <path id="10" class="fil2" d="M74552 52302l541 0 0 -2708c0,-113 19,-215 56,-309 39,-93 93,-174 163,-240 68,-67 152,-119 250,-155 97,-37 203,-56 318,-56 210,0 357,65 437,193 82,129 122,326 122,591l0 2684 541 0 0 -2684c0,-113 20,-218 59,-313 39,-96 94,-179 165,-249 72,-68 155,-123 253,-162 97,-39 204,-60 323,-60 112,0 204,17 275,50 71,32 126,82 167,149 41,68 68,151 83,252 15,100 22,220 22,356l0 2661 540 0 0 -3003c0,-309 -81,-543 -242,-702 -161,-159 -401,-238 -719,-238 -223,0 -419,45 -587,138 -170,91 -312,230 -428,417 -52,-182 -146,-319 -282,-414 -135,-94 -312,-141 -530,-141 -466,0 -805,185 -1015,557l0 -469 -512 0 0 3855z"/>
    <path class="fil2" d="M39071 57038c0,-149 8,-278 25,-386 18,-108 45,-196 84,-265 37,-67 88,-117 153,-149 64,-31 145,-47 239,-47 90,0 164,13 222,39 58,27 103,67 137,122 35,55 59,125 71,213 14,86 20,189 20,310 0,136 -13,251 -38,344 -27,93 -68,168 -123,226 -56,58 -125,98 -208,122 -82,23 -182,35 -297,35l-100 0 0 670 162 0c145,0 262,13 352,41 91,27 161,74 211,140 50,66 84,153 102,264 19,111 28,247 28,411 0,162 -8,302 -24,419 -15,117 -43,213 -82,288 -39,75 -93,130 -160,165 -67,36 -150,54 -250,54 -99,0 -183,-20 -250,-59 -67,-39 -121,-101 -161,-186 -42,-83 -70,-191 -88,-322 -17,-131 -25,-289 -25,-472l0 -1977zm-903 -147l0 2268c0,551 113,959 340,1227 227,267 582,402 1064,402 506,0 881,-137 1125,-410 243,-273 366,-690 366,-1252 0,-174 -19,-337 -58,-487 -39,-150 -98,-281 -177,-396 -78,-114 -179,-205 -301,-275 -123,-70 -267,-110 -432,-124 121,-16 234,-51 337,-105 104,-53 194,-123 272,-209 78,-88 137,-190 181,-308 43,-118 65,-249 65,-394 0,-430 -117,-759 -351,-988 -232,-228 -562,-343 -986,-343 -466,0 -822,121 -1072,362 -248,242 -373,586 -373,1032z"/>
    <polygon id="1" class="fil2" points="41391,60691 42407,60691 42852,59652 43305,60691 44297,60691 43313,58706 44270,56812 43297,56812 42876,57781 42458,56812 41434,56812 42415,58706 "/>
    <path id="2" class="fil2" d="M45850 56707c-274,0 -498,39 -673,118 -175,78 -313,201 -413,366 -100,165 -170,378 -209,636 -39,258 -59,567 -59,926 0,363 20,672 59,929 39,258 109,469 209,634 100,165 238,286 413,364 175,77 399,116 673,116 275,0 500,-39 677,-116 176,-78 314,-199 416,-364 102,-165 172,-376 211,-634 39,-257 59,-566 59,-929 0,-359 -20,-668 -59,-926 -39,-258 -109,-471 -211,-636 -102,-165 -240,-288 -416,-366 -177,-79 -402,-118 -677,-118zm-5 694c108,0 191,22 250,70 59,45 104,115 135,211 29,95 48,215 55,360 6,145 9,317 9,517l0 385c0,213 -3,395 -9,544 -7,148 -25,270 -54,366 -28,95 -74,164 -135,207 -60,44 -143,65 -251,65 -111,0 -196,-24 -255,-71 -59,-47 -102,-123 -132,-227 -30,-105 -46,-241 -51,-407 -5,-168 -8,-371 -8,-608l0 -356c0,-183 3,-339 9,-470 7,-132 26,-242 55,-330 31,-86 76,-150 135,-193 59,-42 141,-63 247,-63z"/>
    <path id="3" class="fil2" d="M49096 57449c100,0 181,20 242,61 62,41 109,104 143,189 32,86 54,194 64,325 11,131 17,289 17,472 0,266 -3,492 -10,680 -7,187 -25,340 -55,459 -31,118 -77,204 -138,258 -62,53 -150,80 -263,80 -94,0 -169,-21 -224,-63 -55,-42 -97,-109 -125,-203 -27,-93 -44,-212 -52,-357 -8,-147 -13,-323 -13,-530 0,-242 3,-449 10,-621 7,-172 24,-313 51,-425 28,-111 70,-193 125,-246 55,-52 132,-79 228,-79zm1337 2934l0 -3571 -849 0 0 402c-70,-166 -172,-292 -303,-378 -132,-86 -293,-129 -482,-129 -198,0 -362,35 -494,105 -131,68 -235,181 -313,336 -80,155 -135,356 -166,602 -31,247 -47,547 -47,902 0,360 15,669 43,929 30,261 81,474 158,642 75,168 180,292 314,373 133,79 304,119 514,119 331,0 575,-144 729,-433l0 347c0,125 -6,235 -18,328 -14,93 -38,169 -72,229 -33,59 -80,102 -139,131 -58,29 -135,43 -229,43 -99,0 -179,-21 -237,-63 -56,-43 -88,-102 -94,-179l-891 0c6,284 109,502 309,652 201,152 494,227 881,227 287,0 531,-40 728,-119 198,-81 346,-194 445,-342 97,-143 157,-310 179,-500 23,-188 34,-405 34,-653z"/>
    <path id="4" class="fil2" d="M54536 59167l0 80c0,155 -5,287 -17,397 -13,112 -34,203 -64,274 -29,73 -71,125 -123,159 -53,33 -120,49 -201,49 -146,0 -248,-56 -303,-170 -55,-113 -82,-297 -82,-554l0 -1344c0,-225 28,-390 86,-497 58,-107 158,-160 299,-160 142,0 242,53 302,161 59,107 88,273 88,499l0 90 862 0 0 -137c0,-449 -102,-779 -308,-990 -204,-211 -519,-317 -945,-317 -262,0 -480,39 -650,118 -171,78 -304,202 -402,369 -97,166 -164,377 -202,634 -39,258 -58,566 -58,925 0,360 19,668 58,925 38,258 105,469 202,634 98,165 231,288 402,366 170,79 388,118 650,118 433,0 750,-116 952,-347 200,-230 301,-586 301,-1066l0 -216 -847 0z"/>
    <path id="5" class="fil2" d="M56973 57038c0,-149 8,-278 25,-386 18,-108 45,-196 84,-265 37,-67 88,-117 153,-149 65,-31 145,-47 239,-47 90,0 164,13 222,39 58,27 104,67 137,122 35,55 59,125 71,213 14,86 21,189 21,310 0,136 -14,251 -39,344 -27,93 -68,168 -123,226 -56,58 -125,98 -208,122 -82,23 -182,35 -297,35l-100 0 0 670 162 0c145,0 262,13 352,41 91,27 161,74 211,140 50,66 85,153 102,264 19,111 28,247 28,411 0,162 -8,302 -24,419 -15,117 -43,213 -82,288 -39,75 -93,130 -160,165 -67,36 -150,54 -250,54 -99,0 -183,-20 -250,-59 -67,-39 -121,-101 -161,-186 -42,-83 -70,-191 -88,-322 -17,-131 -25,-289 -25,-472l0 -1977zm-903 -147l0 2268c0,551 113,959 340,1227 227,267 582,402 1064,402 506,0 881,-137 1125,-410 244,-273 366,-690 366,-1252 0,-174 -19,-337 -58,-487 -39,-150 -98,-281 -177,-396 -78,-114 -179,-205 -301,-275 -123,-70 -267,-110 -432,-124 121,-16 234,-51 337,-105 104,-53 194,-123 272,-209 78,-88 137,-190 181,-308 43,-118 65,-249 65,-394 0,-430 -117,-759 -351,-988 -232,-228 -562,-343 -986,-343 -466,0 -822,121 -1072,362 -248,242 -373,586 -373,1032z"/>
    <path id="6" class="fil2" d="M60828 56707c-274,0 -499,39 -674,118 -174,78 -313,201 -412,366 -101,165 -171,378 -210,636 -39,258 -59,567 -59,926 0,363 20,672 59,929 39,258 109,469 210,634 99,165 238,286 412,364 175,77 400,116 674,116 274,0 500,-39 676,-116 176,-78 314,-199 417,-364 102,-165 172,-376 211,-634 39,-257 59,-566 59,-929 0,-359 -20,-668 -59,-926 -39,-258 -109,-471 -211,-636 -103,-165 -241,-288 -417,-366 -176,-79 -402,-118 -676,-118zm-6 694c108,0 191,22 250,70 60,45 104,115 135,211 29,95 48,215 55,360 7,145 9,317 9,517l0 385c0,213 -2,395 -9,544 -7,148 -24,270 -54,366 -28,95 -74,164 -134,207 -61,44 -144,65 -252,65 -111,0 -196,-24 -255,-71 -59,-47 -102,-123 -132,-227 -29,-105 -45,-241 -51,-407 -5,-168 -8,-371 -8,-608l0 -356c0,-183 3,-339 10,-470 6,-132 25,-242 55,-330 31,-86 75,-150 134,-193 59,-42 141,-63 247,-63z"/>
    <path id="7" class="fil2" d="M63258 57820c0,-251 16,-464 47,-636 32,-172 85,-316 160,-430 75,-115 175,-210 300,-282 123,-71 281,-136 470,-191 243,-73 445,-132 602,-175 157,-43 296,-76 413,-101l0 -782c-47,23 -105,46 -175,70 -70,23 -136,43 -200,59 -65,18 -120,31 -164,42 -44,9 -67,15 -67,15 -268,82 -502,150 -703,207 -201,56 -374,119 -519,191 -147,71 -266,157 -362,258 -94,100 -169,238 -224,410 -55,170 -94,387 -117,645 -23,258 -34,579 -34,962l0 1020c0,300 24,555 72,768 47,213 123,388 229,527 107,137 246,238 420,302 173,65 384,97 634,97 256,0 469,-35 643,-105 173,-69 313,-175 419,-319 106,-142 183,-323 230,-543 47,-219 71,-478 71,-776l0 -131c0,-304 -15,-567 -46,-787 -29,-221 -88,-402 -174,-548 -86,-143 -209,-250 -365,-318 -156,-69 -361,-102 -615,-102 -100,0 -198,13 -293,41 -97,27 -186,69 -270,124 -84,55 -159,124 -225,204 -66,82 -118,176 -157,284zm1242 1122c0,214 -3,395 -10,545 -6,149 -25,271 -55,367 -29,94 -75,164 -135,207 -62,44 -148,65 -257,65 -105,0 -187,-20 -247,-61 -61,-41 -107,-105 -138,-194 -30,-89 -49,-203 -57,-345 -8,-141 -12,-312 -12,-512l0 -139c0,-169 4,-317 12,-445 8,-126 27,-232 56,-316 30,-84 75,-147 136,-190 62,-42 145,-64 250,-64 101,0 181,18 242,54 60,35 106,91 138,168 32,77 54,175 63,296 10,119 14,265 14,433l0 131z"/>
    <path id="8" class="fil2" d="M67332 56707c-274,0 -499,39 -674,118 -174,78 -313,201 -412,366 -101,165 -171,378 -210,636 -39,258 -59,567 -59,926 0,363 20,672 59,929 39,258 109,469 210,634 99,165 238,286 412,364 175,77 400,116 674,116 274,0 500,-39 676,-116 176,-78 314,-199 417,-364 102,-165 172,-376 211,-634 39,-257 59,-566 59,-929 0,-359 -20,-668 -59,-926 -39,-258 -109,-471 -211,-636 -103,-165 -241,-288 -417,-366 -176,-79 -402,-118 -676,-118zm-6 694c108,0 191,22 250,70 60,45 104,115 135,211 29,95 48,215 55,360 7,145 9,317 9,517l0 385c0,213 -2,395 -9,544 -7,148 -24,270 -54,366 -28,95 -74,164 -134,207 -61,44 -144,65 -252,65 -111,0 -196,-24 -255,-71 -59,-47 -102,-123 -132,-227 -29,-105 -45,-241 -51,-407 -5,-168 -8,-371 -8,-608l0 -356c0,-183 3,-339 10,-470 6,-132 25,-242 55,-330 31,-86 75,-150 134,-193 59,-42 141,-63 247,-63z"/>
    <path id="9" class="fil2" d="M70578 57449c99,0 180,20 242,61 62,41 109,104 142,189 33,86 54,194 65,325 11,131 16,289 16,472 0,266 -3,492 -10,680 -6,187 -25,340 -55,459 -31,118 -76,204 -138,258 -62,53 -149,80 -262,80 -94,0 -170,-21 -225,-63 -55,-42 -96,-109 -125,-203 -27,-93 -44,-212 -52,-357 -8,-147 -12,-323 -12,-530 0,-242 3,-449 9,-621 7,-172 24,-313 51,-425 29,-111 70,-193 125,-246 55,-52 132,-79 229,-79zm1336 2934l0 -3571 -848 0 0 402c-70,-166 -172,-292 -304,-378 -132,-86 -293,-129 -481,-129 -199,0 -363,35 -495,105 -130,68 -235,181 -313,336 -79,155 -134,356 -165,602 -31,247 -47,547 -47,902 0,360 14,669 43,929 29,261 80,474 157,642 75,168 180,292 314,373 133,79 304,119 514,119 332,0 575,-144 730,-433l0 347c0,125 -7,235 -19,328 -14,93 -38,169 -71,229 -34,59 -81,102 -140,131 -58,29 -135,43 -229,43 -99,0 -178,-21 -236,-63 -57,-43 -89,-102 -94,-179l-891 0c5,284 108,502 309,652 200,152 493,227 880,227 288,0 531,-40 729,-119 197,-81 345,-194 444,-342 97,-143 158,-310 179,-500 23,-188 34,-405 34,-653z"/>
    <path id="10" class="fil2" d="M74267 59360c0,265 -33,459 -100,582 -68,123 -183,184 -349,184 -169,0 -284,-79 -349,-237 -65,-158 -97,-412 -97,-760 0,-44 0,-86 0,-126 0,-42 3,-85 8,-127l1768 0 0 -291c0,-160 -3,-309 -8,-449 -4,-139 -16,-268 -35,-387 -19,-120 -46,-229 -82,-327 -38,-99 -88,-188 -151,-270 -113,-149 -254,-261 -425,-335 -170,-74 -377,-110 -622,-110 -485,0 -840,137 -1066,413 -67,82 -119,173 -158,275 -39,102 -68,217 -88,342 -19,123 -31,260 -36,408 -5,148 -8,309 -8,483 0,204 1,394 5,568 4,175 18,336 39,484 23,148 57,284 102,406 46,121 109,234 190,336 110,131 246,226 410,285 163,59 363,89 601,89 447,0 778,-104 989,-309 211,-206 317,-530 317,-973 0,-23 0,-47 0,-72 0,-23 -2,-51 -8,-82l-847 0zm-895 -1096c0,-46 -1,-82 -4,-111 -3,-28 -4,-48 -4,-61 0,-248 32,-429 96,-544 61,-114 178,-172 349,-172 87,0 159,14 215,42 57,28 101,71 132,128 31,58 54,132 67,222 13,91 20,199 20,324l0 172 -871 0z"/>
    <polygon id="11" class="fil2" points="76718,58989 77508,58989 77508,60691 78411,60691 78411,56812 77508,56812 77508,58264 76718,58264 76718,56812 75814,56812 75814,60691 76718,60691 "/>
    <polygon class="fil3" points="13797,77787 19508,77633 19137,71262 21173,71169 27714,78066 32910,78004 32755,64613 27034,64643 27498,71014 22209,65169 15096,65881 13797,67241 "/>
    <path id="1" class="fil3" d="M13581 51283l371 8381 959 3217 17999 -464 -155 -10793 -402 -2815 -16360 -402 -2412 2876zm13669 2691l62 3587 -8134 124 -309 -3958 8381 247z"/>
    <polygon id="2" class="fil3" points="13797,46026 19508,45871 19137,39500 21173,39408 27714,46304 32910,46242 32755,32851 27034,32882 27498,39253 22209,33408 15096,34119 13797,35480 "/>
    <polygon id="3" class="fil3" points="16575,32356 21828,31769 20065,28089 33095,28274 32817,21934 13797,22027 13921,27841 "/>
    <polyline class="fil0 str0" points="97450,27963 152649,27963 152649,77447 38849,77447 "/>
    <g>
     <path class="fil4" d="M148322 63626c-3440,-674 -6522,-2263 -8931,-4479 -1281,-1178 -2372,-2532 -3228,-4020 -612,148 -1252,226 -1910,226 -2237,0 -4263,-907 -5729,-2373 -1467,-1467 -2374,-3492 -2374,-5730 0,-2237 907,-4263 2374,-5729 1052,-1053 2393,-1817 3893,-2165 -232,-897 -353,-1820 -353,-2761 0,-4195 2351,-7941 6152,-10605 3574,-2505 8466,-4054 13829,-4054 5364,0 10256,1549 13830,4054 3801,2664 6152,6410 6152,10605 0,909 -113,1801 -330,2669 1684,290 3191,1099 4349,2257 1466,1466 2373,3492 2373,5729 0,2238 -907,4263 -2373,5730 -1467,1466 -3492,2373 -5730,2373 -808,0 -1588,-118 -2325,-338 -865,1532 -1978,2925 -3291,4132 -1983,1824 -3987,2986 -6531,3843 -2870,1066 -4881,3199 -5348,5660 -1647,-1515 -2140,-2900 -1893,-4125 -1105,596 -2101,1362 -3144,2407 -14,-1440 167,-2495 538,-3306zm-2631 -12968c-873,0 -1663,-354 -2236,-926 -572,-572 -926,-1363 -926,-2236 0,-873 354,-1663 926,-2236 573,-572 1363,-926 2236,-926 873,0 1664,354 2236,926 572,573 926,1363 926,2236 0,873 -354,1664 -926,2236 -572,572 -1363,926 -2236,926zm0 4229c-4082,0 -7390,-3309 -7390,-7391 0,-1706 578,-3278 1550,-4529 -1448,-1200 -2504,-2615 -3030,-4148 1857,-1146 3914,-2071 6102,-2753 2869,-894 5962,-1365 9122,-1365 2910,0 5768,400 8451,1166 2441,697 4730,1689 6775,2950 -525,1530 -1577,2942 -3019,4140 976,1253 1558,2828 1558,4539 0,4082 -3309,7391 -7390,7391 -2710,0 -5078,-1458 -6365,-3632 -1286,2174 -3655,3632 -6364,3632zm-9160 -19371c372,-2273 1901,-4351 4182,-5950 2866,-2008 6869,-3250 11332,-3250 4463,0 8467,1242 11332,3250 2283,1599 3812,3678 4183,5952 -1946,-1064 -4045,-1918 -6240,-2544 -2954,-843 -6091,-1284 -9275,-1284 -3454,0 -6850,520 -10016,1507 -1931,601 -3776,1378 -5498,2319zm13894 8388c-284,0 -540,-115 -726,-301 -186,-186 -301,-442 -301,-726 0,-283 115,-539 301,-725l1 0c185,-186 442,-301 725,-301 283,0 540,115 725,301 186,185 301,442 301,725 0,283 -115,539 -301,725l0 1c-187,186 -443,301 -725,301zm3351 0c-282,0 -538,-115 -725,-301l0 -1c-186,-186 -301,-442 -301,-725 0,-282 115,-539 301,-725l0 0c187,-186 443,-301 725,-301 283,0 539,115 725,301l1 0c186,186 301,443 301,725 0,283 -115,539 -301,725l-1 1c-186,186 -442,301 -725,301zm4644 6754c-873,0 -1664,-354 -2236,-926 -572,-572 -926,-1363 -926,-2236 0,-873 354,-1663 926,-2236 572,-572 1363,-926 2236,-926 873,0 1663,354 2235,926 573,573 927,1363 927,2236 0,873 -354,1664 -927,2236 -572,572 -1362,926 -2235,926zm11216 -7069l-32 43c94,395 173,797 237,1207 130,826 197,1636 197,2424l0 59 0 59 -1 58 0 59 -1 58 -2 59 -1 58 -2 58 -1 59 -2 58 -3 58 -2 58 -3 58c-2,39 -4,77 -6,116l-3 58 -4 58c-7,115 -15,231 -25,346 -4,38 -7,76 -10,115 -8,76 -15,152 -23,229l-7 57 -6 57c-28,247 -63,493 -102,736 -28,169 -58,337 -91,504l-11 56 -12 55 -11 56 -12 55 -12 56c-12,55 -24,110 -37,166l-12 55 -13 55 -13 55c229,44 465,67 706,67 1029,0 1960,-417 2633,-1091 674,-673 1091,-1604 1091,-2633 0,-1028 -417,-1959 -1091,-2633 -673,-674 -1604,-1090 -2633,-1090 -232,0 -459,21 -680,62zm-35141 7377l-13 -56 -13 -56 -14 -56 -12 -56 -13 -56 -13 -56 -12 -56 -12 -57 -12 -56 -11 -57 -12 -56c-7,-38 -15,-76 -22,-113l-11 -57 -11 -57 -10 -57 -10 -57 -10 -57 -10 -57c-7,-38 -13,-76 -19,-114l-9 -58 -9 -57c-6,-38 -12,-76 -18,-115l-8 -57 -8 -58 -8 -57c-5,-39 -10,-77 -15,-116 -8,-58 -15,-116 -22,-173l-6 -58c-7,-59 -13,-117 -19,-175l-6 -58c-6,-58 -11,-117 -16,-175l-5 -59c-3,-39 -6,-78 -9,-117 -3,-39 -6,-78 -9,-117 -2,-39 -5,-78 -7,-118l-4 -58c-4,-79 -8,-158 -11,-236l-2 -59c-2,-40 -3,-79 -4,-119l-2 -59c-1,-40 -2,-79 -3,-119l-1 -59 -1 -60 0 -59 0 -60 -1 -60c0,-788 68,-1598 198,-2424 64,-410 143,-812 237,-1207 -25,-34 -50,-68 -75,-102 -53,-2 -105,-3 -159,-3 -1028,0 -1959,416 -2633,1090 -673,674 -1090,1605 -1090,2633 0,1029 417,1960 1090,2633 674,674 1605,1091 2633,1091 82,0 162,-3 242,-8z"/>
     <path class="fil5" d="M136531 35516c372,-2273 1901,-4351 4182,-5950 2866,-2008 6869,-3250 11332,-3250 4463,0 8467,1242 11332,3250 2283,1599 3812,3678 4183,5952 -1946,-1064 -4045,-1918 -6240,-2544 -2954,-843 -6091,-1284 -9275,-1284 -3454,0 -6850,520 -10016,1507 -1931,601 -3776,1378 -5498,2319zm33105 8073l-32 43c94,395 173,797 237,1207 130,826 197,1636 197,2424l0 59 0 59 -1 58 0 59 -1 58 -2 59 -1 58 -2 58 -1 59 -2 58 -3 58 -2 58 -3 58c-2,39 -4,77 -6,116l-3 58 -4 58c-7,115 -15,231 -25,346 -3,38 -7,76 -10,115 -8,76 -15,152 -23,229l-7 57 -6 57c-28,247 -63,493 -102,736 -28,169 -58,337 -91,504l-11 56 -12 55 -11 56 -12 55 -12 56c-12,55 -24,110 -37,166l-12 55 -13 55 -13 55c229,44 465,67 706,67 1029,0 1960,-417 2633,-1091 674,-673 1091,-1604 1091,-2633 0,-1028 -417,-1959 -1091,-2633 -673,-674 -1604,-1090 -2633,-1090 -232,0 -459,21 -680,62zm-35141 7377l-13 -56 -13 -56 -14 -56 -12 -56 -13 -56 -13 -56 -12 -56 -12 -57 -12 -56 -11 -57 -12 -56c-7,-38 -15,-76 -22,-114l-11 -56 -11 -57 -10 -57 -10 -57 -10 -57 -10 -57c-7,-38 -13,-76 -19,-114l-9 -58 -9 -57c-6,-38 -12,-76 -18,-115l-8 -57 -8 -58 -8 -57c-5,-39 -10,-77 -15,-116 -8,-58 -15,-116 -22,-173l-6 -58c-7,-59 -13,-117 -19,-175l-6 -58c-6,-58 -11,-117 -16,-175l-5 -59c-3,-39 -6,-78 -9,-117 -3,-39 -6,-78 -9,-117 -2,-39 -5,-78 -7,-117l-4 -59c-4,-79 -8,-158 -11,-236l-2 -59c-2,-40 -3,-79 -4,-119l-2 -59c-1,-40 -2,-79 -3,-119l-1 -59 -1 -60 0 -59 -1 -60 0 -60c0,-788 68,-1598 198,-2424 64,-410 143,-812 237,-1207 -25,-34 -50,-68 -75,-102 -53,-2 -105,-3 -159,-3 -1028,0 -1959,416 -2633,1090 -673,674 -1090,1605 -1090,2633 0,1029 417,1960 1090,2633 674,674 1605,1091 2633,1091 82,0 162,-3 242,-8zm11196 3921c-4082,0 -7390,-3309 -7390,-7391 0,-1706 578,-3278 1550,-4529 -1448,-1200 -2504,-2615 -3030,-4148 1857,-1146 3914,-2071 6102,-2753 2869,-894 5962,-1365 9122,-1365 2910,0 5768,400 8451,1166 2441,697 4730,1689 6775,2950 -525,1530 -1577,2942 -3019,4140 976,1253 1558,2828 1558,4539 0,4082 -3309,7391 -7390,7391 -2710,0 -5078,-1458 -6365,-3632 -1286,2174 -3655,3632 -6364,3632zm0 -4229c-873,0 -1663,-354 -2236,-926 -572,-572 -926,-1363 -926,-2236 0,-873 354,-1663 926,-2236 573,-572 1363,-926 2236,-926 873,0 1664,354 2236,926 572,573 926,1363 926,2236 0,873 -354,1664 -926,2236 -572,572 -1363,926 -2236,926zm12729 0c-873,0 -1664,-354 -2236,-926 -572,-572 -926,-1363 -926,-2236 0,-873 354,-1663 926,-2236 572,-572 1363,-926 2236,-926 873,0 1663,354 2235,926 573,573 927,1363 927,2236 0,873 -354,1664 -927,2236 -572,572 -1362,926 -2235,926zm-4644 -6754c-282,0 -538,-115 -725,-301l0 -1c-186,-186 -301,-442 -301,-725 0,-282 115,-539 301,-725l0 0c187,-186 443,-301 725,-301 283,0 539,115 725,301l1 0c186,186 301,443 301,725 0,283 -115,539 -301,725l-1 1c-186,186 -442,301 -725,301zm-3351 0c-284,0 -540,-115 -726,-301 -186,-186 -301,-442 -301,-726 0,-283 115,-539 301,-725l1 0c185,-186 442,-301 725,-301 283,0 540,115 725,301 186,185 301,442 301,725 0,283 -115,539 -301,725l0 1c-187,186 -443,301 -725,301z"/>
    </g>
   </g>
  </g>
 </g>
</svg>
